<svg width="14" height="14" xmlns="http://www.w3.org/2000/svg"><path d="M6.993 13.096A6.101 6.101 0 01.89 7 6.101 6.101 0 016.993.9a6.101 6.101 0 016.105 6.098 6.1 6.1 0 01-6.105 6.097zM6.96 2.038c-2.74 0-4.864 2.218-4.864 4.954 0 2.736 2.124 4.878 4.864 4.878 2.74 0 4.962-2.142 4.962-4.878A4.958 4.958 0 006.96 2.038zm2.48 5.564H7.608V9.43a.61.61 0 11-1.22 0V7.6H4.554a.608.608 0 01-.61-.608v-.001a.61.61 0 01.61-.61h1.833v-1.83a.609.609 0 111.22 0v1.83H9.44c.338 0 .61.272.61.61v.001a.608.608 0 01-.61.609z" fill="#FFF"/></svg>