<svg width="17" height="18" xmlns="http://www.w3.org/2000/svg"><path d="M7.872 9.393c1.53 0 2.956.447 4.168 1.206A4.338 4.338 0 009.137 18H.735A.733.733 0 010 17.265a7.88 7.88 0 017.872-7.872zm5.693 1.927c.417 0 .754.337.754.753v1.833h1.834a.754.754 0 110 1.507h-1.834v1.833a.754.754 0 01-1.507 0v-1.834h-1.833a.754.754 0 010-1.507h1.83v-1.83c0-.418.338-.755.755-.755h.001zM7.873 0a4.696 4.696 0 014.692 4.692 4.697 4.697 0 01-4.692 4.692 4.697 4.697 0 01-4.692-4.692A4.696 4.696 0 017.873 0z" fill="#fff"/></svg>