<svg width="49" height="49" xmlns="http://www.w3.org/2000/svg"><g transform="translate(.363 .31)" fill="none" fill-rule="evenodd"><circle stroke="#63D5FF" stroke-width=".5" fill="#31A5FF" cx="24" cy="24" r="23.75"/><path d="M30.939 29.49c0 1.718-1.414 3.112-3.157 3.112H15.156c-1.743 0-3.156-1.394-3.156-3.113V19.113C12 17.393 13.413 16 15.156 16h12.626c1.743 0 3.157 1.394 3.157 3.113v2.075l3.738-1.843c.326-.161.713-.144 1.024.046.31.189.498.523.498.882v8.056c0 .36-.188.694-.499.883-.31.189-.697.206-1.023.045l-3.738-1.843v2.075z" fill="#FFF" fill-rule="nonzero"/></g></svg>