<svg width="41" height="42" xmlns="http://www.w3.org/2000/svg"><g transform="translate(.58 .927)" fill="none" fill-rule="evenodd"><circle stroke="#00F2FF" stroke-width=".862" fill-opacity=".9" fill="#00F2FF" cx="20.113" cy="20.113" r="19.682"/><path d="M18.84 21.59c1.08 1.08 2.365 1.955 3.805 2.469l1.954-1.543c.103-.103.257-.103.411 0l3.6 2.314c.462.308.668.925.36 1.388a.401.401 0 01-.207.206l-1.696 1.645a2.24 2.24 0 01-1.851.566c-3.29-.669-6.376-2.314-8.792-4.628a16.897 16.897 0 01-4.833-8.586 2.24 2.24 0 01.565-1.851l1.748-1.697a.994.994 0 011.44 0c.103.052.154.155.206.206l2.365 3.548c.103.102.103.257 0 .41L16.32 17.94a10.567 10.567 0 002.52 3.65z" fill="#FFF" fill-rule="nonzero"/></g></svg>