<svg width="12" height="12" xmlns="http://www.w3.org/2000/svg"><path d="M2.373 4.564c.204 0 .372.145.403.335l.006.064v1.018c-.007.84.33 1.648.935 2.244l.122.114.006.005.046.04.005.004.026.022.03.025.026.02.03.023.006.005.003.002.031.024.029.021.013.01.007.004.044.033.02.012.048.033.008.005.04.026.016.01h.002l.064.04.033.019-.031-.018.065.037.013.007.03.017.021.01.03.016.037.02.012.005.143.067a3.289 3.289 0 002.542.035l.103-.046.608.596a4.114 4.114 0 01-1.533.466v1.268H8.08c.203 0 .37.145.402.334l.005.065a.402.402 0 01-.341.394L8.079 12h-4.15a.405.405 0 01-.406-.367.401.401 0 01.34-.426l.067-.005h1.666V9.933a4.118 4.118 0 01-1.25-.327L4.29 9.58a3.813 3.813 0 01-.331-.17l-.045-.027a4.056 4.056 0 01-.222-.142l-.078-.055a3.717 3.717 0 01-.097-.071l-.018-.014a3.543 3.543 0 01-.088-.07l-.059-.05a3.272 3.272 0 01-.074-.064l-.042-.038a3.912 3.912 0 01-1.267-2.718l-.003-.186V4.963c0-.22.183-.399.408-.399zM.137.26a.471.471 0 01.658 0l11.069 10.826a.449.449 0 010 .644.473.473 0 01-.66 0L.138.903a.45.45 0 010-.644zm9.498 4.305c.225 0 .408.179.408.399v1.013c.005.67-.165 1.33-.493 1.918L8.942 7.3c.188-.406.289-.855.285-1.32V4.964c0-.22.183-.399.408-.399zm-5.56 1.118L6 7.565l-.09-.002c-1.022-.059-1.823-.88-1.835-1.88zM6.024 0C7.1 0 7.973.853 7.973 1.906V5.66c0 .21-.034.41-.098.597l-3.8-3.716v-.634C4.075.853 4.947 0 6.024 0z" fill="#FF3A3A"/></svg>