<svg width="18" height="20" xmlns="http://www.w3.org/2000/svg"><path d="M15.222 7.41c.383 0 .71.25.763.64l.007.11v2.06c0 3.353-2.514 6.174-5.755 6.63l-.232.028v1.62h2.53c.405 0 .757.35.757.75a.774.774 0 01-.657.745l-.1.007H5.948a.772.772 0 01-.757-.751c0-.368.296-.693.657-.744l.1-.008h2.557v-1.619a6.626 6.626 0 01-2.584-.843l1.123-1.117c.67.31 1.417.484 2.204.484 2.809 0 5.098-2.19 5.213-4.962l.005-.22V8.16c0-.4.352-.75.756-.75zM16.61.743a.795.795 0 011.146 0 .782.782 0 010 1.137L1.39 18.131a.745.745 0 01-.573.244.745.745 0 01-.573-.244.782.782 0 010-1.137zm-3.514 8.165l.001 1.272c0 2.112-1.722 3.822-3.848 3.822a3.86 3.86 0 01-1.115-.164l4.962-4.93zM3.274 7.202c.37 0 .698.294.75.652l.007.1v2.266c0 .2.01.395.033.589l-1.279 1.27a6.565 6.565 0 01-.263-1.621l-.005-.238V7.953c0-.401.353-.75.757-.75zM9.248 0c1.542 0 2.871.9 3.485 2.199L5.4 9.48l.001-5.66C5.4 1.71 7.122 0 9.248 0z" fill="#4C84FF"/></svg>