<svg width="21" height="17" xmlns="http://www.w3.org/2000/svg"><path d="M8.761 5.704l1.82 1.878a1.483 1.483 0 010 1.991L8.819 11.45a.825.825 0 01-1.195 0 .825.825 0 010-1.194l.74-.797-1.422.057c-2.902.057-5.234 2.503-5.234 5.405V16a.875.875 0 01-.854.854.875.875 0 01-.853-.853V14.92a7.107 7.107 0 016.77-7.107l1.65-.062-.853-.853c-.342-.341-.285-.853 0-1.195.34-.341.853-.284 1.194 0zM17.232 0c.223 0 .437.09.593.252 4.258 4.287 4.263 11.206.011 15.5a.847.847 0 01-1.215-1.177l.018-.02a9.325 9.325 0 000-13.175.824.824 0 010-1.128.824.824 0 01.593-.252zm-3.03 3.22a7.056 7.056 0 010 9.823.835.835 0 01-1.129 0 .847.847 0 010-1.13 5.363 5.363 0 000-7.563.835.835 0 010-1.13.847.847 0 011.13 0z" fill="#FFF"/></svg>