<svg width="9" height="9" xmlns="http://www.w3.org/2000/svg"><g fill="#FFF" fill-rule="evenodd"><path d="M.103 4.322l.018.022 3.111 3.553c.17.193.457.207.642.03a.488.488 0 00.03-.67L1.07 4.022 3.906.794a.488.488 0 00-.028-.67.442.442 0 00-.642.03L.12 3.701a.489.489 0 00-.017.62z" transform="matrix(1 0 0 -1 .471 8.5)"/><path d="M4.106 4.322l.018.022 3.111 3.553c.17.193.457.207.642.03a.488.488 0 00.03-.67L5.074 4.022 7.909.794a.488.488 0 00-.028-.67.442.442 0 00-.642.03L4.123 3.701a.489.489 0 00-.017.62z" transform="matrix(1 0 0 -1 .471 8.5)"/></g></svg>