<svg width="21" height="20" xmlns="http://www.w3.org/2000/svg"><path d="M7.961 10.986c4.16 0 7.535 2.245 7.535 5.976s-15.067 3.731-15.067 0c0-3.73 3.372-5.976 7.532-5.976zm4.94-1.076c4.16 0 7.535 1.788 7.533 5.653 0 1.375-1.905 2.261-4.36 2.658.408-.434.64-.932.64-1.497 0-3.61-3.197-5.868-6.137-6.459.471-.22 1.87-.355 2.325-.355zm-4.94-8.69c2.387 0 4.323 1.913 4.323 4.272a4.262 4.262 0 01-2.162 3.699 4.368 4.368 0 01-4.322 0 4.262 4.262 0 01-2.161-3.7c0-2.358 1.935-4.27 4.322-4.27zM13.395 0c2.388 0 4.32 1.913 4.32 4.27 0 2.359-1.936 4.272-4.323 4.272a4.33 4.33 0 01-.932-.102 4.907 4.907 0 001.01-2.979c0-1.97-1.162-3.667-2.841-4.472A4.337 4.337 0 0113.395 0z" fill="#FFF"/></svg>