<svg width="14" height="20" xmlns="http://www.w3.org/2000/svg"><path d="M.786 7.202c.42 0 .786.35.786.751v2.267c0 2.863 2.426 5.182 5.421 5.182s5.421-2.306 5.421-5.182V8.16c0-.4.366-.75.786-.75.434 0 .8.297.8.75v2.06c0 3.433-2.738 6.308-6.22 6.658v1.62h2.629c.42 0 .786.35.786.75 0 .402-.366.752-.786.752H3.564c-.42 0-.786-.35-.786-.751 0-.402.366-.752.786-.752h2.657v-1.619C2.75 16.516 0 13.64 0 10.22V7.953c0-.401.366-.75.786-.75zM6.993 0c2.21 0 3.998 1.71 3.998 3.821v6.36c0 2.112-1.789 3.822-3.998 3.822-2.209 0-3.957-1.71-3.998-3.835V3.821C2.995 1.71 4.785 0 6.993 0z" fill="#4C84FF"/></svg>