<svg width="49" height="49" xmlns="http://www.w3.org/2000/svg"><g transform="translate(.133 .223)" fill="none" fill-rule="evenodd"><circle stroke="#98FFA1" stroke-width=".5" fill="#36B37E" cx="24" cy="24" r="23.75"/><path d="M21.803 25.964c1.307 1.288 2.862 2.331 4.604 2.945l2.364-1.84c.124-.124.31-.124.497 0l4.355 2.76c.56.368.809 1.104.436 1.656a.482.482 0 01-.25.246l-2.052 1.963a2.736 2.736 0 01-2.24.675c-3.981-.798-7.714-2.76-10.638-5.522-2.924-2.76-4.977-6.319-5.848-10.246a2.65 2.65 0 01.685-2.208l2.115-2.025a1.214 1.214 0 011.742 0c.124.061.186.184.249.246l2.861 4.233c.125.123.125.307 0 .49l-1.928 2.27c.684 1.657 1.742 3.13 3.048 4.357z" fill="#FFF" fill-rule="nonzero"/></g></svg>