<svg width="50" height="49" xmlns="http://www.w3.org/2000/svg"><g transform="translate(.526 .158)" fill="none" fill-rule="evenodd"><circle stroke="#FFA8A8" stroke-width=".503" fill="#F66767" cx="24.347" cy="24.347" r="24.096"/><path d="M24.641 21.798c-1.848 0-3.697.352-5.369 1.144l-.352 2.993c0 .176-.132.308-.352.352l-5.061 1.1c-.66.132-1.365-.22-1.497-.88a.486.486 0 010-.352l.044-2.86a2.712 2.712 0 011.1-2.07c3.39-2.244 7.438-3.476 11.487-3.564a20.454 20.454 0 0111.487 3.213 2.712 2.712 0 011.1 2.068l-.044 2.949c0 .704-.528 1.232-1.232 1.232-.132.044-.264 0-.352 0l-5.061-1.012c-.176 0-.309-.132-.353-.352l-.264-2.993c-1.672-.704-3.476-1.012-5.28-.968z" fill="#FFF" fill-rule="nonzero"/></g></svg>