<svg width="23" height="16" xmlns="http://www.w3.org/2000/svg" xmlns:xlink="http://www.w3.org/1999/xlink"><defs><linearGradient x1="50%" y1="100%" x2="50%" y2=".158%" id="a"><stop stop-color="#086A6F" offset="0%"/><stop stop-color="#32DCE2" offset="99.974%"/></linearGradient><filter x="-6.7%" y="-10%" width="113.4%" height="120%" filterUnits="objectBoundingBox" id="c"><feGaussianBlur stdDeviation="1.5" in="SourceAlpha" result="shadowBlurInner1"/><feOffset in="shadowBlurInner1" result="shadowOffsetInner1"/><feComposite in="shadowOffsetInner1" in2="SourceAlpha" operator="arithmetic" k2="-1" k3="1" result="shadowInnerInner1"/><feColorMatrix values="0 0 0 0 0.15929878 0 0 0 0 0.649707825 0 0 0 0 1 0 0 0 0.5 0" in="shadowInnerInner1"/></filter><path d="M7.305.015h12.647a2.498 2.498 0 012.5 2.495v9.977a2.498 2.498 0 01-2.5 2.495H7.304a2.5 2.5 0 01-1.842-.809L.493 8.763a1.868 1.868 0 010-2.528L5.463.824a2.501 2.501 0 011.843-.81z" id="b"/></defs><g fill="none" fill-rule="evenodd"><g opacity=".8" transform="translate(.008 .498)"><use fill="url(#a)" xlink:href="#b"/><use fill="#000" filter="url(#c)" xlink:href="#b"/></g><path d="M14.093 7.996l2.549 2.55a.699.699 0 01-.988.987l-2.55-2.549-2.549 2.55a.699.699 0 01-.987-.988l2.549-2.55-2.55-2.549a.699.699 0 01.988-.988l2.55 2.55 2.549-2.55a.699.699 0 01.988.988l-2.55 2.55z" fill="#FFF" fill-rule="nonzero"/></g></svg>