<svg width="49" height="49" xmlns="http://www.w3.org/2000/svg"><defs><linearGradient x1="50%" y1="0%" x2="50%" y2="100%" id="a"><stop stop-color="#2FDC34" stop-opacity=".9" offset="0%"/><stop stop-color="#00B92F" stop-opacity=".9" offset="100%"/></linearGradient></defs><g transform="translate(.133 .223)" fill="none" fill-rule="evenodd"><circle stroke="#98FFA1" stroke-width=".5" fill="url(#a)" cx="24.336" cy="24.336" r="24.086"/><path d="M22.796 26.124c1.307 1.306 2.862 2.364 4.604 2.986l2.364-1.866c.124-.125.31-.125.497 0l4.355 2.8c.56.373.809 1.12.436 1.679a.486.486 0 01-.25.249l-2.052 1.99c-.622.56-1.431.81-2.24.685-3.981-.809-7.714-2.8-10.638-5.599a20.445 20.445 0 01-5.848-10.39 2.711 2.711 0 01.685-2.239l2.115-2.053a1.203 1.203 0 011.742 0c.124.062.186.187.249.25l2.861 4.292c.125.124.125.31 0 .497l-1.928 2.302c.684 1.68 1.742 3.173 3.048 4.417z" fill="#FFF" fill-rule="nonzero"/></g></svg>