<svg width="24" height="17" xmlns="http://www.w3.org/2000/svg"><path d="M8.761 5.704l1.82 1.878a1.483 1.483 0 010 1.991L8.819 11.45a.825.825 0 01-1.195 0 .825.825 0 010-1.194l.74-.797-1.422.057c-2.902.057-5.234 2.503-5.234 5.405V16a.875.875 0 01-.854.854.875.875 0 01-.853-.853V14.92a7.107 7.107 0 016.77-7.107l1.65-.062-.853-.853c-.342-.341-.285-.853 0-1.195.34-.341.853-.284 1.194 0zM17.811 0c1.643 0 2.988 1.317 3.017 2.935v1.501l.715-.409.012.007c.215-.123.465-.195.73-.195a1.431 1.431 0 011.44 1.492l-.002.036v5.077c.002.036.004.072.004.108 0 .783-.646 1.42-1.442 1.42a1.46 1.46 0 01-.664-.159l-.04-.02-.001.002-.751-.429v1.438c0 1.626-1.33 2.958-2.967 2.984H6.43c-1.641 0-2.99-1.315-3.016-2.934v-.393h.009c0-.397.326-.72.73-.72.395 0 .716.309.73.694v.506c0 .778.634 1.417 1.416 1.436h11.604c.787 0 1.432-.627 1.451-1.4V2.87c0-.778-.633-1.417-1.415-1.436H6.333c-.787 0-1.433.627-1.452 1.4v3.87h-.005c0 .397-.326.72-.73.72a.726.726 0 01-.73-.694v-.026H3.41v-3.72C3.411 1.358 4.743.027 6.378 0H17.81zm4.13 5.508a.343.343 0 00-.164.04l-.02.012-.928.52v3.628l.941.532c.05.03.109.045.17.045a.337.337 0 00.339-.297l.001-.02V5.836a.335.335 0 00-.34-.328z" fill="#FFF"/></svg>