<svg width="41" height="40" xmlns="http://www.w3.org/2000/svg" xmlns:xlink="http://www.w3.org/1999/xlink"><defs><filter x="-21.9%" y="-15.6%" width="143.8%" height="143.8%" filterUnits="objectBoundingBox" id="a"><feOffset dy="2" in="SourceAlpha" result="shadowOffsetOuter1"/><feGaussianBlur stdDeviation="2" in="shadowOffsetOuter1" result="shadowBlurOuter1"/><feComposite in="shadowBlurOuter1" in2="SourceAlpha" operator="out" result="shadowBlurOuter1"/><feColorMatrix values="0 0 0 0 0.137254902 0 0 0 0 0.694117647 0 0 0 0 1 0 0 0 0.4 0" in="shadowBlurOuter1"/></filter><circle id="b" cx="16" cy="16" r="16"/></defs><g transform="translate(4.025 2)" fill="none" fill-rule="evenodd"><use fill="#000" filter="url(#a)" xlink:href="#b"/><circle stroke="#46D3FF" stroke-linejoin="square" fill-opacity=".9" fill="#23B1FF" cx="16" cy="16" r="15.5"/><path d="M20.407 19.335c0 1.146-.93 2.075-2.076 2.075h-8.3a2.075 2.075 0 01-2.076-2.075v-6.918c0-1.146.93-2.075 2.075-2.075h8.301c1.147 0 2.076.929 2.076 2.075V13.8l2.458-1.228a.692.692 0 011 .619v5.37a.692.692 0 01-1 .619l-2.458-1.229v1.384z" fill="#FFF" fill-rule="nonzero"/></g></svg>