<svg width="32" height="32" xmlns="http://www.w3.org/2000/svg" xmlns:xlink="http://www.w3.org/1999/xlink"><defs><filter x="-29.2%" y="-20.8%" width="158.3%" height="158.3%" filterUnits="objectBoundingBox" id="a"><feOffset dy="2" in="SourceAlpha" result="shadowOffsetOuter1"/><feGaussianBlur stdDeviation="2" in="shadowOffsetOuter1" result="shadowBlurOuter1"/><feComposite in="shadowBlurOuter1" in2="SourceAlpha" operator="out" result="shadowBlurOuter1"/><feColorMatrix values="0 0 0 0 0.737254902 0 0 0 0 0.584313725 0 0 0 0 0.0509803922 0 0 0 0.4 0" in="shadowBlurOuter1"/></filter><circle id="b" cx="12" cy="12" r="12"/></defs><g transform="translate(4 2)" fill="none" fill-rule="evenodd"><use fill="#000" filter="url(#a)" xlink:href="#b"/><circle stroke="#FFD440" stroke-linejoin="square" fill-opacity=".9" fill="#BC950D" cx="12" cy="12" r="11.5"/><path d="M16.248 6.563h-8.87c-.95 0-1.412.468-1.412 1.405v5.622c0 .937.434 1.38 1.36 1.38h1.36l-.167 1.431c0 .173.095.332.248.412a.467.467 0 00.483-.022l2.7-1.82h4.35c.942 0 1.36-.444 1.36-1.38V7.967c0-.937-.47-1.405-1.412-1.405zm-7.151 4.884a.679.679 0 110-1.358.679.679 0 010 1.358zm2.715 0a.68.68 0 01-.682-.678.682.682 0 011.364 0 .68.68 0 01-.682.678zm2.72 0a.68.68 0 01-.682-.678.68.68 0 011.363 0 .68.68 0 01-.682.678z" fill="#FFF" fill-rule="nonzero"/></g></svg>