<svg width="28" height="19" xmlns="http://www.w3.org/2000/svg" xmlns:xlink="http://www.w3.org/1999/xlink"><defs><linearGradient x1="50%" y1="100%" x2="50%" y2=".158%" id="a"><stop stop-color="#0054A6" offset="0%"/><stop stop-color="#53BDFF" offset="99.974%"/></linearGradient><filter x="-5.5%" y="-8.3%" width="111%" height="116.6%" filterUnits="objectBoundingBox" id="c"><feGaussianBlur stdDeviation="1.5" in="SourceAlpha" result="shadowBlurInner1"/><feOffset in="shadowBlurInner1" result="shadowOffsetInner1"/><feComposite in="shadowOffsetInner1" in2="SourceAlpha" operator="arithmetic" k2="-1" k3="1" result="shadowInnerInner1"/><feColorMatrix values="0 0 0 0 0.15929878 0 0 0 0 0.649707825 0 0 0 0 1 0 0 0 0.5 0" in="shadowInnerInner1"/></filter><path d="M8.838 0H24.14a3.022 3.022 0 013.025 3.019v12.073a3.022 3.022 0 01-3.025 3.018H8.837a3.026 3.026 0 01-2.229-.979L.596 10.584a2.26 2.26 0 010-3.058L6.608.979A3.027 3.027 0 018.84 0z" id="b"/></defs><g fill="none" fill-rule="evenodd"><g opacity=".8"><use fill="url(#a)" xlink:href="#b"/><use fill="#000" filter="url(#c)" xlink:href="#b"/><path stroke="#A0DCFF" stroke-width=".503" d="M24.14.251c.765 0 1.458.31 1.96.81s.812 1.193.813 1.958h0V15.09c0 .765-.311 1.457-.813 1.958-.502.501-1.195.81-1.96.81h0H8.837a2.775 2.775 0 01-2.043-.898h0L.78 10.414a2.004 2.004 0 01-.53-1.359c0-.487.177-.975.53-1.359h0l6.013-6.547A2.775 2.775 0 018.839.251h0z" stroke-linejoin="square"/></g><path d="M17.041 9.055l3.084 3.085a.846.846 0 01-1.195 1.195l-3.084-3.085-3.085 3.085a.846.846 0 01-1.195-1.195l3.084-3.085-3.084-3.084a.846.846 0 011.195-1.196l3.085 3.085 3.084-3.085a.846.846 0 011.195 1.196l-3.084 3.084z" fill="#FFF" fill-rule="nonzero"/></g></svg>