<svg width="22" height="22" xmlns="http://www.w3.org/2000/svg"><path d="M11.034 1c3.1 0 5.622 2.522 5.622 5.622a5.62 5.62 0 01-2.402 4.607 10.015 10.015 0 013.42 1.981.773.773 0 01-1.023 1.158 8.48 8.48 0 00-5.617-2.124c-4.68 0-8.488 3.808-8.488 8.488a.773.773 0 01-1.546 0c0-4.407 2.856-8.16 6.814-9.504a5.619 5.619 0 01-2.403-4.606C5.411 3.522 7.934 1 11.034 1zm7.49 13.678c.426 0 .772.346.772.773v1.868h1.868a.773.773 0 010 1.545h-1.868v1.868a.773.773 0 01-1.545 0v-1.868h-1.868a.773.773 0 010-1.545h1.868V15.45c0-.427.346-.773.773-.773zm-7.49-12.132a4.082 4.082 0 00-4.077 4.076 4.082 4.082 0 004.077 4.077 4.081 4.081 0 004.077-4.077 4.08 4.08 0 00-4.077-4.076z" fill="#4A5B86" stroke="#4A5B86" stroke-width=".1"/></svg>