<svg width="12" height="13" xmlns="http://www.w3.org/2000/svg"><path d="M5.979 0c1.655 0 2.997 1.53 2.997 3.432 0 .9-.285 1.72-.788 2.327-.211.213-.503.527-.503.9 0 .161.037.315.102.454a3.24 3.24 0 00-1.29 2.598c0 .893.357 1.698.933 2.298H1.524C.685 11.979 0 11.321 0 10.501c0-.285.073-.556.233-.79H.204c.635-.87 1.714-1.559 3.004-1.983.212 0 .394-.059.554-.161.03 0 .051-.03.08-.03v-.029c.263-.19.423-.505.423-.849 0-.373-.211-.717-.503-.9a3.803 3.803 0 01-.787-2.327C2.975 1.53 4.324 0 5.979 0zm3.762 7.435a2.27 2.27 0 012.268 2.276 2.27 2.27 0 01-2.268 2.276 2.27 2.27 0 01-2.267-2.276A2.27 2.27 0 019.74 7.435zm.3.871h-.599v.951h-.948v.6h.948v.952h.598v-.952h.948v-.6h-.948v-.951z" fill="#FFF"/></svg>