<svg width="106" height="106" xmlns="http://www.w3.org/2000/svg"><defs><filter x="-13.6%" y="-13.6%" width="127.3%" height="127.3%" filterUnits="objectBoundingBox" id="a"><feOffset dy="2" in="SourceAlpha" result="shadowOffsetOuter1"/><feGaussianBlur stdDeviation="2" in="shadowOffsetOuter1" result="shadowBlurOuter1"/><feColorMatrix values="0 0 0 0 0 0 0 0 0 0 0 0 0 0 0 0 0 0 0.5 0" in="shadowBlurOuter1" result="shadowMatrixOuter1"/><feMerge><feMergeNode in="shadowMatrixOuter1"/><feMergeNode in="SourceGraphic"/></feMerge></filter><filter x="-11.8%" y="-11.8%" width="123.5%" height="123.5%" filterUnits="objectBoundingBox" id="c"><feOffset dy="1" in="SourceAlpha" result="shadowOffsetOuter1"/><feGaussianBlur stdDeviation=".5" in="shadowOffsetOuter1" result="shadowBlurOuter1"/><feColorMatrix values="0 0 0 0 0 0 0 0 0 0 0 0 0 0 0 0 0 0 0.3 0" in="shadowBlurOuter1" result="shadowMatrixOuter1"/><feMerge><feMergeNode in="shadowMatrixOuter1"/><feMergeNode in="SourceGraphic"/></feMerge></filter><linearGradient x1="50%" y1="0%" x2="50%" y2="100%" id="b"><stop stop-color="#00BDFF" offset="0%"/><stop stop-color="#005FFF" offset="100%"/></linearGradient></defs><g filter="url(#a)" transform="translate(9 9)" fill="none"><circle fill-opacity=".5" fill="#FFF" cx="44" cy="44" r="44"/><circle fill="url(#b)" cx="44" cy="44" r="40"/><g filter="url(#c)" transform="translate(26.5 16.128)" fill="#FFF"><path d="M15.046 19.934c2.1 1.458 4.468 2.508 6.97 2.91l2.67-3.184c.133-.204.383-.252.667-.13l6.586 2.718c.85.368 1.384 1.33 1.033 2.198a.672.672 0 01-.267.408l-2.22 3.274c-.683.933-1.701 1.486-2.818 1.526-5.554-.076-11.09-1.843-15.759-4.934A28.866 28.866 0 011.29 11.946a3.869 3.869 0 01.318-3.26L3.895 5.31c.534-.815 1.534-1.01 2.335-.454.183.053.3.208.4.277l4.984 5.162c.2.139.25.396.133.685l-1.97 3.67c1.368 2.133 3.185 3.913 5.269 5.284z"/></g></g></svg>