<svg width="32" height="22" xmlns="http://www.w3.org/2000/svg"><g fill="none" fill-rule="evenodd"><path d="M27.662 1.035c.813 0 1.55.334 2.083.875.536.544.867 1.296.868 2.125h0v14a3.02 3.02 0 01-.868 2.126c-.534.54-1.27.876-2.083.875h0-17.464a2.93 2.93 0 01-2.173-.97h0l-6.861-7.592a2.139 2.139 0 01-.551-1.439c0-.516.183-1.031.55-1.438h0l6.862-7.591a2.93 2.93 0 012.175-.971h0z" stroke="#E0F8FF" fill-opacity=".9" fill="#328CEC"/><path d="M19.56 11.035l3.52 3.577a.992.992 0 01-.019 1.366.954.954 0 01-1.345.02l-3.52-3.577-3.52 3.577a.954.954 0 01-1.345-.02.992.992 0 01-.019-1.366l3.52-3.577-3.52-3.577a.992.992 0 01.019-1.366.954.954 0 011.345-.02l3.52 3.577 3.52-3.577a.954.954 0 011.345.02.99.99 0 01.019 1.366l-3.52 3.577z" fill="#FFF" fill-rule="nonzero"/></g></svg>