<svg width="11" height="12" xmlns="http://www.w3.org/2000/svg"><path d="M10.154 5.14C10.154 2.303 7.889 0 5.077 0S0 2.304 0 5.14c0 2.582 1.891 4.733 4.33 5.088l-.05.911H2.116a.44.44 0 00-.423.43c0 .228.2.431.423.431h5.923a.44.44 0 00.424-.43.44.44 0 00-.424-.43h-2.14l-.074-.912a5.146 5.146 0 004.33-5.089zM5.077 9.442c-2.34 0-4.23-1.924-4.23-4.278C.846 2.81 2.736.86 5.076.86c2.34 0 4.23 1.924 4.23 4.278 0 2.355-1.916 4.304-4.23 4.304zm0-7.519c-1.767 0-3.16 1.443-3.16 3.215 0 1.772 1.393 3.215 3.16 3.215 1.767 0 3.16-1.443 3.16-3.215 0-1.772-1.418-3.215-3.16-3.215zM3.807 6c-.696 0-1.269-.582-1.269-1.291s.573-1.291 1.27-1.291c.697 0 1.269.607 1.269 1.29C5.077 5.393 4.505 6 3.807 6z" fill="#FF3A3A"/></svg>