<svg width="41" height="41" xmlns="http://www.w3.org/2000/svg" xmlns:xlink="http://www.w3.org/1999/xlink"><defs><linearGradient x1="50%" y1="100%" x2="50%" y2=".382%" id="a"><stop stop-color="#B01616" offset="0%"/><stop stop-color="#B81F38" offset="99.923%"/></linearGradient><linearGradient x1="50%" y1="0%" x2="50%" y2="100%" id="d"><stop stop-color="#FF4564" offset="0%"/><stop stop-color="#EF2727" offset="100%"/></linearGradient><filter x="-3.7%" y="-3.7%" width="107.5%" height="107.5%" filterUnits="objectBoundingBox" id="c"><feGaussianBlur stdDeviation="1.5" in="SourceAlpha" result="shadowBlurInner1"/><feOffset in="shadowBlurInner1" result="shadowOffsetInner1"/><feComposite in="shadowOffsetInner1" in2="SourceAlpha" operator="arithmetic" k2="-1" k3="1" result="shadowInnerInner1"/><feColorMatrix values="0 0 0 0 1 0 0 0 0 0.312385671 0 0 0 0 0.426988059 0 0 0 1 0" in="shadowInnerInner1"/></filter><circle id="b" cx="20.113" cy="20.113" r="20.113"/></defs><g fill="none" fill-rule="evenodd"><use fill="url(#a)" xlink:href="#b"/><use fill="#000" filter="url(#c)" xlink:href="#b"/><circle stroke="url(#d)" stroke-width=".503" stroke-linejoin="square" cx="20.113" cy="20.113" r="19.861"/><path d="M20.356 18.007c-1.527 0-3.054.29-4.436.945l-.29 2.472c0 .146-.11.255-.291.291l-4.181.91c-.546.108-1.127-.183-1.236-.728a.401.401 0 010-.29l.036-2.364a2.24 2.24 0 01.909-1.709c2.8-1.854 6.144-2.872 9.489-2.945a16.897 16.897 0 019.489 2.654c.545.4.872 1.018.909 1.71l-.037 2.435a.994.994 0 01-1.018 1.018c-.109.036-.218 0-.29 0l-4.181-.836c-.146 0-.255-.11-.291-.291l-.218-2.472a10.567 10.567 0 00-4.363-.8z" fill="#FFF" fill-rule="nonzero"/></g></svg>