<svg width="9" height="12" xmlns="http://www.w3.org/2000/svg"><path d="M7.833 4.5c.23 0 .417.18.417.402v1.022c.015 2.055-1.591 3.785-3.709 3.992v1.279h1.703c.207 0 .379.146.41.337l.006.065a.407.407 0 01-.349.398L6.244 12H2.006a.411.411 0 01-.416-.37.406.406 0 01.348-.43l.068-.005h1.702v-1.28a4.248 4.248 0 01-1.277-.33l-.057-.025a3.923 3.923 0 01-.117-.056l-.042-.02a3.867 3.867 0 01-.091-.048l-.088-.048-.047-.027c-.05-.03-.1-.06-.149-.092l-.077-.05-.08-.056a3.794 3.794 0 01-.099-.072l-.018-.014a3.604 3.604 0 01-.226-.186l-.043-.038A3.926 3.926 0 01.003 6.11L0 5.924V4.902a.409.409 0 01.383-.397.414.414 0 01.444.332l.006.065v1.027a3.124 3.124 0 00.955 2.263l.125.116.006.004.08.067.05.04-.02-.015.026.02.037.03.036.025.028.021.02.015.046.031.02.014.057.038.041.026.016.01h.002l.065.04.068.038.015.008.051.028.028.014.042.02.012.007.145.067a3.392 3.392 0 003.143-.243 3.152 3.152 0 001.49-2.684V4.902a.41.41 0 01.416-.402zM4.125 0C5.161 0 6 .846 6 1.89v3.72C6 6.654 5.16 7.5 4.125 7.5A1.882 1.882 0 012.25 5.61V1.89C2.25.846 3.09 0 4.125 0z" fill="#66C0FF"/></svg>