<svg width="28" height="19" xmlns="http://www.w3.org/2000/svg"><g fill="none"><path d="M8.838 0H24.14a3.022 3.022 0 013.025 3.019v12.073a3.022 3.022 0 01-3.025 3.018H8.837a3.026 3.026 0 01-2.229-.979L.596 10.584a2.26 2.26 0 010-3.058L6.608.979A3.027 3.027 0 018.84 0z" fill="#4A5B86"/><path d="M17.041 9.055l3.084 3.085a.846.846 0 01-1.195 1.195l-3.084-3.085-3.085 3.085a.846.846 0 01-1.195-1.195l3.084-3.085-3.084-3.084a.846.846 0 011.195-1.196l3.085 3.085 3.084-3.085a.846.846 0 011.195 1.196l-3.084 3.084z" fill="#FFF"/></g></svg>