<svg width="18" height="20" xmlns="http://www.w3.org/2000/svg"><g fill="#FFF"><path d="M10.866 6.967c-.574-.574-1.244-.85-2.036-.85s-1.462.276-2.036.85c-.574.554-.85 1.224-.85 2.016s.276 1.462.85 2.016c.572.554 1.244.83 2.036.83s1.462-.276 2.036-.83c.575-.554.85-1.224.85-2.016s-.278-1.462-.85-2.016zm0 0c-.574-.574-1.244-.85-2.036-.85s-1.462.276-2.036.85c-.574.554-.85 1.224-.85 2.016s.276 1.462.85 2.016c.572.554 1.244.83 2.036.83s1.462-.276 2.036-.83c.575-.554.85-1.224.85-2.016s-.278-1.462-.85-2.016zm0 0c-.574-.574-1.244-.85-2.036-.85s-1.462.276-2.036.85c-.574.554-.85 1.224-.85 2.016s.276 1.462.85 2.016c.572.554 1.244.83 2.036.83s1.462-.276 2.036-.83c.575-.554.85-1.224.85-2.016s-.278-1.462-.85-2.016z"/><path d="M16.32 13.29a8.38 8.38 0 001.166-4.307 8.38 8.38 0 00-1.166-4.308c-.772-1.325-1.839-2.352-3.162-3.121C11.833.783 10.391.408 8.83.408c-1.56 0-3.023.375-4.348 1.146-1.323.772-2.373 1.798-3.142 3.121A8.38 8.38 0 00.174 8.983a8.38 8.38 0 001.166 4.308 8.405 8.405 0 002.482 2.699c-1.252.384-2.024.91-2.024 1.492 0 1.174 3.15 2.125 7.032 2.125 3.883 0 7.032-.951 7.032-2.125 0-.584-.777-1.11-2.036-1.495a8.407 8.407 0 002.494-2.696zM5.53 5.724c.907-.909 2.015-1.364 3.3-1.364 1.285 0 2.39.455 3.301 1.364.908.89 1.363 1.975 1.363 3.26 0 1.285-.455 2.373-1.363 3.26-.908.89-2.016 1.344-3.3 1.344-1.286 0-2.391-.456-3.302-1.343-.908-.89-1.363-1.976-1.363-3.26 0-1.283.455-2.371 1.363-3.261z"/></g></svg>