<svg width="41" height="40" xmlns="http://www.w3.org/2000/svg" xmlns:xlink="http://www.w3.org/1999/xlink"><defs><filter x="-21.9%" y="-15.6%" width="143.8%" height="143.8%" filterUnits="objectBoundingBox" id="a"><feOffset dy="2" in="SourceAlpha" result="shadowOffsetOuter1"/><feGaussianBlur stdDeviation="2" in="shadowOffsetOuter1" result="shadowBlurOuter1"/><feComposite in="shadowBlurOuter1" in2="SourceAlpha" operator="out" result="shadowBlurOuter1"/><feColorMatrix values="0 0 0 0 0 0 0 0 0 0.712954314 0 0 0 0 0.433504884 0 0 0 0.4 0" in="shadowBlurOuter1"/></filter><circle id="b" cx="16" cy="16" r="16"/></defs><g transform="translate(4.025 2)" fill="none" fill-rule="evenodd"><use fill="#000" filter="url(#a)" xlink:href="#b"/><circle stroke="#1FE698" stroke-linejoin="square" fill-opacity=".9" fill="#0DBC72" cx="16" cy="16" r="15.5"/><path d="M14.988 17.176c.859.859 1.881 1.554 3.027 1.963l1.554-1.227c.082-.082.204-.082.327 0l2.863 1.84c.368.246.532.737.286 1.105a.32.32 0 01-.163.164l-1.35 1.308c-.409.369-.94.532-1.472.45-2.618-.531-5.072-1.84-6.995-3.68a13.442 13.442 0 01-3.844-6.831 1.783 1.783 0 01.45-1.473l1.39-1.35a.79.79 0 011.145 0c.082.041.123.123.164.164l1.882 2.822c.081.082.081.205 0 .327l-1.268 1.514a8.406 8.406 0 002.004 2.904z" fill="#FFF" fill-rule="nonzero"/></g></svg>