<svg width="106" height="106" xmlns="http://www.w3.org/2000/svg" xmlns:xlink="http://www.w3.org/1999/xlink"><defs><filter x="-13.6%" y="-13.6%" width="127.3%" height="127.3%" filterUnits="objectBoundingBox" id="a"><feOffset dy="2" in="SourceAlpha" result="shadowOffsetOuter1"/><feGaussianBlur stdDeviation="2" in="shadowOffsetOuter1" result="shadowBlurOuter1"/><feColorMatrix values="0 0 0 0 0 0 0 0 0 0 0 0 0 0 0 0 0 0 0.5 0" in="shadowBlurOuter1" result="shadowMatrixOuter1"/><feMerge><feMergeNode in="shadowMatrixOuter1"/><feMergeNode in="SourceGraphic"/></feMerge></filter><filter x="-15.6%" y="-20.5%" width="131.3%" height="151.2%" filterUnits="objectBoundingBox" id="c"><feOffset dy="1" in="SourceAlpha" result="shadowOffsetOuter1"/><feGaussianBlur stdDeviation=".5" in="shadowOffsetOuter1" result="shadowBlurOuter1"/><feColorMatrix values="0 0 0 0 0 0 0 0 0 0 0 0 0 0 0 0 0 0 0.3 0" in="shadowBlurOuter1" result="shadowMatrixOuter1"/><feMerge><feMergeNode in="shadowMatrixOuter1"/><feMergeNode in="SourceGraphic"/></feMerge></filter><filter x="-6.2%" y="-5.1%" width="112.5%" height="120.5%" filterUnits="objectBoundingBox" id="d"><feOffset dy="1" in="SourceAlpha" result="shadowOffsetOuter1"/><feGaussianBlur stdDeviation=".5" in="shadowOffsetOuter1" result="shadowBlurOuter1"/><feColorMatrix values="0 0 0 0 0 0 0 0 0 0 0 0 0 0 0 0 0 0 0.3 0" in="shadowBlurOuter1"/></filter><linearGradient x1="50%" y1="0%" x2="50%" y2="100%" id="b"><stop stop-color="#00BDFF" offset="0%"/><stop stop-color="#005FFF" offset="100%"/></linearGradient><path d="M32 1.108v17.306c0 1.736-1.813 1.283-3.389-.338l-4.669-4.807v3.572a2.666 2.666 0 01-2.666 2.666H2.666A2.666 2.666 0 010 16.841V2.676A2.666 2.666 0 012.666.009h18.61a2.666 2.666 0 012.667 2.667l-.001 3.577 4.67-4.806C30.186-.175 32-.63 32 1.107z" id="e"/></defs><g filter="url(#a)" transform="translate(9 9)" fill="none" fill-rule="evenodd"><circle fill-opacity=".5" fill="#FFF" fill-rule="nonzero" cx="44" cy="44" r="44"/><circle fill="url(#b)" fill-rule="nonzero" cx="44" cy="44" r="40"/><g filter="url(#c)" transform="translate(28.499 23.127)"><use fill="#000" filter="url(#d)" xlink:href="#e"/><use fill="#FFF" xlink:href="#e"/></g></g></svg>