<svg width="164" height="119" xmlns="http://www.w3.org/2000/svg"><defs><linearGradient x1="50%" y1="0%" x2="50%" y2="99.347%" id="b"><stop stop-color="#006CE7" stop-opacity="0" offset="0%"/><stop stop-color="#0074D9" stop-opacity=".8" offset="100%"/></linearGradient><linearGradient x1="50%" y1="0%" x2="50%" y2="100%" id="a"><stop stop-color="#37A9F8" stop-opacity="0" offset="0%"/><stop stop-color="#37A9F8" offset="100%"/></linearGradient><linearGradient x1="50%" y1="0%" x2="50%" y2="99.347%" id="c"><stop stop-color="#0074D9" stop-opacity=".8" offset="0%"/><stop stop-color="#006CE7" stop-opacity="0" offset="100%"/></linearGradient><linearGradient x1="50%" y1="0%" x2="50%" y2="99.347%" id="e"><stop stop-color="#006CE7" stop-opacity="0" offset="0%"/><stop stop-color="#0074D9" stop-opacity=".8" offset="100%"/></linearGradient><linearGradient x1="50%" y1="0%" x2="50%" y2="100%" id="d"><stop stop-color="#37A9F8" stop-opacity="0" offset="0%"/><stop stop-color="#37A9F8" offset="100%"/></linearGradient><linearGradient x1="50%" y1=".193%" x2="50%" y2="100%" id="f"><stop stop-color="#0566D4" offset="0%"/><stop stop-color="#29ADFF" offset="100%"/></linearGradient></defs><g fill="none" fill-rule="evenodd"><path d="M82.3 105.699c28 0 50.7-22.7 50.7-50.8C133 26.8 110.2 4.1 82.3 4.1c-28 0-50.7 22.7-50.7 50.799 0 28.1 22.7 50.8 50.7 50.8z" stroke="url(#a)" fill="url(#b)" transform="translate(0 1)"/><path d="M164 118c0-34.794-37.9-63-82-63S0 83.206 0 118h164z" fill="url(#c)" transform="translate(0 1)"/><path d="M129.7 21.6a4.1 4.1 0 100-8.2 4.1 4.1 0 000 8.2zm6-16a2.8 2.8 0 100-5.6 2.8 2.8 0 000 5.6zM34.3 21.5a2.8 2.8 0 100-5.6 2.8 2.8 0 000 5.6z" stroke="url(#d)" fill="url(#e)" transform="translate(0 1)"/><path d="M41.783 13.5c2.06 0 3.924.826 5.274 2.162a7.312 7.312 0 012.182 5.213h0v6.055l10.145-5.02a2.175 2.175 0 012.098.094A2.12 2.12 0 0162.5 23.81h0v20.38a2.12 2.12 0 01-1.019 1.805 2.175 2.175 0 01-2.097.094h0L49.24 41.07v6.055a7.312 7.312 0 01-2.182 5.213 7.474 7.474 0 01-5.274 2.162h0H9.957a7.474 7.474 0 01-5.275-2.162A7.312 7.312 0 012.5 47.125h0v-26.25c0-2.036.834-3.879 2.182-5.213A7.474 7.474 0 019.957 13.5h0z" stroke="#4FBFFF" fill-opacity=".75" fill="url(#f)" transform="translate(53 23)"/><path d="M19.776 12.041a13.59 13.59 0 01-.869 2.542c-.97 1.885-2.503 3.363-4.393 4.329-1.941.965-4.24 1.38-6.538.867C2.561 18.656-.912 13.36.211 7.969c1.124-5.4 6.385-8.913 11.8-7.744 1.941.407 3.627 1.379 5.057 2.7 2.402 2.39 3.423 5.858 2.708 9.116z" stroke="url(#d)" fill="url(#e)" transform="translate(70 47)"/><path d="M83.14 56.141h-2.28v-2.279A.854.854 0 0080 53a.853.853 0 00-.86.862v2.28h-2.28a.853.853 0 00-.86.861c0 .503.355.856.86.856h2.28v2.279c0 .457.354.862.86.862.456 0 .86-.353.86-.862v-2.28h2.28a.85.85 0 00.86-.855.853.853 0 00-.86-.862z" fill="#FFF" fill-rule="nonzero"/></g></svg>