<svg width="16" height="16" xmlns="http://www.w3.org/2000/svg"><path d="M13.677 11.87h.006v-.037l-.006.037zm.82-3.87A6.505 6.505 0 008 1.502 6.504 6.504 0 001.502 8 6.505 6.505 0 008 14.497 6.505 6.505 0 0014.498 8M8 13.565A5.572 5.572 0 012.435 8 5.572 5.572 0 018 2.435 5.572 5.572 0 0113.565 8 5.572 5.572 0 018 13.565m2.662-3.53L8.653 8.02l2.007-1.985a.464.464 0 10-.653-.66L7.998 7.362 6.02 5.377a.464.464 0 00-.657.656l1.976 1.982-1.992 1.971a.463.463 0 10.652.66l1.996-1.974 2.01 2.019a.464.464 0 00.658-.656" fill="#FFF"/></svg>