<?xml version="1.0" encoding="UTF-8"?>
<svg width="10px" height="10px" viewBox="0 0 10 10" version="1.1" xmlns="http://www.w3.org/2000/svg" xmlns:xlink="http://www.w3.org/1999/xlink">
    <title>形状</title>
    <g id="前台" stroke="none" stroke-width="1" fill="none" fill-rule="evenodd">
        <g id="事件管理-组件" transform="translate(-1400.000000, -1586.000000)" fill="#FF4C51" fill-rule="nonzero">
            <path d="M1405,1586 C1407.76111,1586 1410,1588.23889 1410,1591 C1410,1593.76111 1407.76111,1596 1405,1596 C1402.23889,1596 1400,1593.76111 1400,1591 C1400,1588.23889 1402.23889,1586 1405,1586 Z M1405,1587 C1402.79111,1587 1401,1588.79111 1401,1591 C1401,1593.20889 1402.79111,1595 1405,1595 C1407.20889,1595 1409,1593.20889 1409,1591 C1409,1588.79111 1407.20889,1587 1405,1587 Z M1406.29667,1588.99667 C1406.49111,1588.80222 1406.80889,1588.80222 1407.00333,1588.99667 C1407.19389,1589.18722 1407.1977,1589.49623 1407.01477,1589.69152 L1407.00333,1589.70333 L1405.70667,1591 L1407.00333,1592.29667 C1407.19778,1592.49111 1407.19778,1592.80889 1407.00333,1593.00333 C1406.81278,1593.19389 1406.50377,1593.1977 1406.30848,1593.01477 L1406.29667,1593.00333 L1405,1591.70667 L1403.70333,1593.00333 C1403.50889,1593.19778 1403.19111,1593.19778 1402.99667,1593.00333 C1402.80611,1592.81278 1402.8023,1592.50377 1402.98523,1592.30848 L1402.99667,1592.29667 L1404.29333,1591 L1402.99667,1589.70333 C1402.80222,1589.50889 1402.80222,1589.19111 1402.99667,1588.99667 C1403.18722,1588.80611 1403.49623,1588.8023 1403.69152,1588.98523 L1403.70333,1588.99667 L1405,1590.29333 L1406.29667,1588.99667 Z" id="形状"></path>
        </g>
    </g>
</svg>