<svg width="16" height="16" xmlns="http://www.w3.org/2000/svg"><g fill="#FFF"><path d="M15.512 15.04h-2.088v-.907h-.95V15.6c.028.24.218.373.434.4h2.604a.482.482 0 00.488-.48.482.482 0 00-.488-.48zm-1.763-3.307c-.081-.426-.325-.64-.515-.746-.434-.267-.95-.134-1.004-.134l-.054.027-.027.027c-.46.24-1.03.533-1.329.64-.027-.08-.054-.187-.108-.267a4.913 4.913 0 00-.244-.64c-.027-.16-.136-.533-.461-1.467.19.267.352.534.57.8.135.24.379.427.65.48.271.08.597.027.84-.106a1.1 1.1 0 00.408-1.494c-.028-.053-.082-.133-.109-.213-.65-1.12-1.41-2.347-2.088-2.693h-.027a5.466 5.466 0 00-3.2-.32c-.922.213-1.6 1.013-1.98 1.44a.573.573 0 00-.108.133 7.857 7.857 0 01-1.248-.293c-.027-.027-.407-.08-.76-.08V1.013c0-.026 0-.026.028-.026h9.437c.027 0 .027.026.027.026v6.934h.977V1.013A.998.998 0 0012.42 0H2.983C2.441 0 1.98.453 1.98 1.013V15.04H.488a.482.482 0 00-.488.48c0 .267.217.48.488.48h2.007a.482.482 0 00.488-.48V8.96l.081.027.028.026.108.027c.027 0 1.79.373 2.25.507.462.106.869-.214 1.194-.507.081.24.19.48.271.72-.217.053-.46.133-.678.187-.895.293-1.112.533-1.166.773-.054.213-.542 2.24-.813 3.307a.953.953 0 00.027.773c.135.293.434.507.84.613.163.027.299.054.434.054.244 0 .434-.054.597-.187.298-.213.38-.56.407-.693.19-.747.515-1.92.623-2.294.217-.08.733-.186.977-.186.081.133.19.373.27.56.435.906.76 1.546 1.248 1.653.814.187 2.577-.773 3.173-1.12.461-.16 1.085-.64.895-1.467zm-1.22.72l-.054.027c-.977.587-2.224 1.147-2.604 1.067-.19-.107-.542-.854-.705-1.2-.271-.614-.434-.934-.732-1.014-.244-.053-.678 0-1.03.08-.787.16-.895.32-.977.48-.054.134-.515 1.814-.705 2.534v.053s-.027.107-.081.133c-.055.027-.19.027-.353 0-.163-.053-.298-.106-.325-.186-.027-.054 0-.134 0-.16l.027-.027v-.053c.027-.107.678-2.694.786-3.28.271-.187 1.356-.507 1.6-.534h.57l-.19-.533c-.136-.373-.298-.88-.461-1.253-.081-.214-.136-.4-.19-.507l-.108-.32-.353.053c-.19.027-.298.16-.488.347-.109.107-.434.48-.597.48-.434-.107-1.762-.4-2.17-.48l-.108-.027c-.027 0-.244-.08-.325-.186-.027-.027-.054-.08 0-.187.027-.133.081-.16.108-.16.109-.053.272-.027.353 0 1.6.507 1.844.347 1.98.24.081-.053.162-.16.27-.293.3-.347.869-1.014 1.52-1.147a4.438 4.438 0 012.684.267c.515.266 1.41 1.786 1.736 2.373.054.08.081.16.135.213.082.134.027.32-.108.4-.054.027-.136.054-.217.027a.494.494 0 01-.19-.133L11.2 9.52c-.407-.56-.786-1.12-1.139-1.707-.271-.426-.678-.613-1.003-.426-.299.16-.353.426 0 1.626v.027c.27.72.542 1.573.596 1.76v.08l.027.08c.109.213.163.427.244.613.136.374.217.667.489.8.19.107.38.187 2.06-.693a.548.548 0 01.353.027c.027.026.109.053.136.24.081.373-.244.506-.38.533l-.054-.027z"/><path d="M6.045 4.118c-.092.372-.046.79.162 1.139.207.348.53.604.922.697.115.023.254.046.369.046.668 0 1.268-.441 1.452-1.115.208-.79-.253-1.626-1.06-1.835-.83-.21-1.637.255-1.845 1.068zm2.214.604a.804.804 0 01-.992.581.72.72 0 01-.484-.372.981.981 0 01-.092-.627.791.791 0 01.784-.604c.069 0 .138 0 .207.024a.811.811 0 01.577.998z"/></g></svg>