<svg width="18" height="19" xmlns="http://www.w3.org/2000/svg"><g fill="none"><path d="M14.196 0a2.538 2.538 0 012.537 2.538v12.924A2.538 2.538 0 0114.196 18H2.538A2.538 2.538 0 010 15.462V2.538A2.538 2.538 0 012.538 0h11.658zm.536 7.515a.611.611 0 00-.847.168l-4.86 7.265-.01.013a.61.61 0 001.025.666l4.86-7.264.01-.014a.61.61 0 00-.178-.834zm-5.779.85H3.276a.611.611 0 00.004 1.222h5.688a.611.611 0 00-.015-1.221zm3.143-3.805H3.276a.611.611 0 00.004 1.222H12.11a.611.611 0 00-.014-1.222z" fill="#0081FF"/><path d="M16.608 11.06a5 5 0 10-9.215 3.88 5 5 0 009.215-3.88h0zm-4.593 6.065A4.13 4.13 0 017.89 13c0-.971.343-1.912.97-2.654l5.81 5.81a4.107 4.107 0 01-2.655.97h0zm3.251-1.589L9.48 9.75a4.105 4.105 0 012.536-.874A4.13 4.13 0 0116.14 13c.001.92-.307 1.813-.874 2.536h0z" stroke="#FF4C51" stroke-width=".4" fill="#FF4C51"/></g></svg>