<svg width="19" height="19" xmlns="http://www.w3.org/2000/svg"><g fill="none"><path d="M9 0a9 9 0 100 18A9 9 0 009 0zm-.496 13.107l-.541.523a2.558 2.558 0 01-1.783.714 2.556 2.556 0 01-1.783-.713 2.393 2.393 0 010-3.464l1.99-1.926c1.238-1.197 2.659-1.369 3.62-.439.26.252.262.66.004.913a.674.674 0 01-.937.004c-.565-.547-1.341.04-1.754.44l-1.99 1.925a1.125 1.125 0 000 1.63 1.232 1.232 0 001.7 0l.54-.524c.26-.25.68-.25.937.004a.634.634 0 01-.003.913zm5.099-4.934l-2.124 2.054c-.656.636-1.346.956-1.999.956-.533 0-1.042-.214-1.488-.645a.634.634 0 01-.003-.913.674.674 0 01.936-.003c.194.188.65.629 1.621-.31l2.124-2.055a1.128 1.128 0 000-1.63c-.423-.41-1.072-.609-1.567-.13l-.674.653a.675.675 0 01-.936-.003.634.634 0 01.003-.913l.674-.653c.956-.925 2.4-.87 3.433.129a2.394 2.394 0 010 3.463z" fill="#0081FF"/><path d="M17.608 11.06a5 5 0 10-9.215 3.88 5 5 0 009.215-3.88h0zm-4.593 6.065A4.13 4.13 0 018.89 13c0-.971.343-1.912.97-2.654l5.81 5.81a4.107 4.107 0 01-2.655.97h0zm3.251-1.589L10.48 9.75a4.105 4.105 0 012.536-.874A4.13 4.13 0 0117.14 13c.001.92-.307 1.813-.874 2.536h0z" stroke="#FF4C51" stroke-width=".4" fill="#FF4C51"/></g></svg>