<svg width="21" height="14" xmlns="http://www.w3.org/2000/svg"><path d="M13.125 0a2.625 2.625 0 012.625 2.625v1.75l3.109-1.554a.875.875 0 011.266.783v6.793a.875.875 0 01-1.266.782L15.75 9.625v1.75A2.625 2.625 0 0113.125 14h-10.5A2.625 2.625 0 010 11.375v-8.75A2.625 2.625 0 012.625 0h10.5zM6.127 3.938c-.484 0-.877.418-.877.934v4.256c0 .16.039.319.114.46.24.45.774.607 1.195.353l3.496-2.11a.908.908 0 00.328-.347c.242-.447.098-1.019-.322-1.276L6.565 4.062a.834.834 0 00-.438-.125z" fill="#4A5B86"/></svg>