<svg width="36" height="48" xmlns="http://www.w3.org/2000/svg"><defs><linearGradient x1="50%" y1="0%" x2="50%" y2="100%" id="a"><stop stop-color="#EE9B9B" offset="0%"/><stop stop-color="#D83333" offset="100%"/></linearGradient><linearGradient x1="50%" y1=".851%" x2="50%" y2="100%" id="b"><stop stop-color="#ED1212" offset="0%"/><stop stop-color="#FDD" offset="100%"/></linearGradient></defs><g fill="none"><path d="M18 48c-6.722 0-18-1.118-18-5.591s11.278-5.703 18-5.703c6.722 0 18 1.23 18 5.703C36 46.882 24.722 48 18 48zm0-8.722c-10.14 0-15.152 2.236-15.38 3.13.228.895 5.24 3.132 15.38 3.132s15.152-2.237 15.38-3.131c-.228-.895-5.24-3.131-15.38-3.131z" fill="url(#a)"/><path d="M18.474 0A14.627 14.627 0 003.789 14.66c0 8.132 14.685 28.634 14.685 28.634S33.158 22.792 33.158 14.66C33.158 6.528 26.618 0 18.474 0zm0 15.233c-1.836 0-3.212-1.374-3.212-3.207 0-1.832 1.376-3.207 3.212-3.207 1.835 0 3.212 1.375 3.212 3.207 0 1.833-1.492 3.207-3.212 3.207z" fill="url(#b)"/></g></svg>