<svg width="14" height="14" xmlns="http://www.w3.org/2000/svg"><path d="M1.983 1.167h2.1c.35 0 .584-.234.584-.584S4.433 0 4.083 0H.467C.35 0 .233.117.117.233 0 .35 0 .467 0 .583v3.5c0 .35.233.584.583.584s.584-.234.584-.584v-2.1l3.15 3.15a.564.564 0 00.816 0 .564.564 0 000-.816l-3.15-3.15zm2.334 7.7l-2.1 2.1-1.05 1.05v-2.1c0-.35-.234-.584-.584-.584S0 9.567 0 9.917v3.5c0 .35.233.583.583.583h3.5c.35 0 .584-.233.584-.583s-.234-.584-.584-.584h-2.1l1.05-1.05 2.1-2.1a.564.564 0 000-.816.564.564 0 00-.816 0zm9.1.466c-.35 0-.584.234-.584.584v2.1l-1.05-1.05-2.1-2.1a.564.564 0 00-.816 0 .564.564 0 000 .816l2.1 2.1 1.05 1.05h-2.1c-.35 0-.584.234-.584.584s.234.583.584.583h3.5c.35 0 .583-.233.583-.583v-3.5c0-.35-.233-.584-.583-.584zm0-9.333h-3.5c-.35 0-.584.233-.584.583s.234.584.584.584h2.1l-1.05 1.05-2.1 2.1a.564.564 0 000 .816.564.564 0 00.816 0l2.1-2.1 1.05-1.05v2.1c0 .35.234.584.584.584S14 4.433 14 4.083v-3.5c0-.35-.233-.583-.583-.583z" fill="#31A5FF"/></svg>