<svg width="11" height="11" xmlns="http://www.w3.org/2000/svg"><path d="M9.75 0c.692 0 1.314.619 1.245 1.306v8.456c0 .688-.553 1.238-1.245 1.238H1.245C.553 11 0 10.45 0 9.762V1.306C0 .62.553 0 1.245 0zm0 .894H1.245c-.208 0-.415.206-.415.412v8.388c0 .206.207.412.415.412H9.75c.207 0 .415-.206.415-.412V1.306c0-.206-.208-.412-.415-.412zM2.362 5.719c.207 0 .415.206.415.412v1.513l1.66-1.65c.207-.138.483-.138.622 0 .138.137.138.412 0 .619l-1.66 1.65H4.92c.208 0 .415.206.415.412s-.207.412-.415.412H2.223a.538.538 0 01-.276-.274V6.13c0-.206.207-.412.415-.412zM8.84 1.912c.07 0 .139.07.208.207V4.8c0 .206-.208.412-.415.412s-.415-.206-.415-.412V3.287l-1.66 1.65a.521.521 0 01-.622 0 .513.513 0 010-.618l1.66-1.65H6.074c-.207 0-.414-.206-.345-.344 0-.206.207-.413.415-.413z" fill="#00E9FF"/></svg>