<?xml version="1.0" encoding="UTF-8"?>
<svg width="12px" height="12px" viewBox="0 0 12 12" version="1.1" xmlns="http://www.w3.org/2000/svg" xmlns:xlink="http://www.w3.org/1999/xlink">
    <title>形状</title>
    <g id="前台" stroke="none" stroke-width="1" fill="none" fill-rule="evenodd">
        <g id="拨号/接电话" transform="translate(-2025.000000, -40.000000)" fill="rgba(0,143,255,0.8)" fill-rule="nonzero" stroke="rgba(0,143,255,0.8)" stroke-width="0.3">
            <path d="M2034.14815,41 C2035.15648,41 2035.98331,41.81675 2035.99975,42.8213525 L2036,42.8518519 L2036,49.1481481 C2036,50.1564815 2035.18325,50.9833148 2034.17865,50.9997506 L2034.14815,51 L2027.85185,51 C2026.84352,51 2026.01669,50.18325 2026.00025,49.1786475 L2026,49.1481481 L2026,42.8518519 C2026,41.8435185 2026.81675,41.0166852 2027.82135,41.0002494 L2027.85185,41 L2034.14815,41 Z M2035.25926,48.037037 L2034.14815,48.037037 C2033.54368,48.037037 2033.04792,48.5262265 2033.03721,49.1282605 L2033.03704,49.1481481 L2033.03704,50.2592593 L2034.14815,50.2592593 C2034.75262,50.2592593 2035.24838,49.7700698 2035.25908,49.1680358 L2035.25926,49.1481481 L2035.25926,48.037037 Z M2034.14815,41.7407407 L2027.85185,41.7407407 C2027.24738,41.7407407 2026.75162,42.2299302 2026.74092,42.8319642 L2026.74074,42.8518519 L2026.74074,49.1481481 C2026.74074,49.7526167 2027.22993,50.2483766 2027.83196,50.2590825 L2027.85185,50.2592593 L2032.2963,50.2592593 L2032.2963,49.1481481 C2032.2963,48.1398148 2033.11305,47.3129815 2034.11765,47.2965456 L2034.14815,47.2962963 L2035.25926,47.2962963 L2035.25926,42.8518519 C2035.25926,42.2473833 2034.77007,41.7516234 2034.16804,41.7409175 L2034.14815,41.7407407 Z M2028.05556,43.0555556 C2028.20009,42.9110208 2028.41513,42.9074955 2028.5631,43.0449798 L2028.57407,43.0555556 L2031.18519,45.6666667 L2031.18519,44.3333333 C2031.18519,44.1296296 2031.35185,43.962963 2031.55556,43.962963 C2031.75473,43.962963 2031.9185,44.1223045 2031.92568,44.3198094 L2031.92593,44.3333333 L2031.92593,46.5555556 C2031.92593,46.6481481 2031.88889,46.7407407 2031.81481,46.8148148 C2031.76218,46.8849903 2031.67631,46.9219247 2031.57294,46.9256181 L2031.55556,46.9259259 L2029.33333,46.9259259 C2029.12963,46.9259259 2028.96296,46.7592593 2028.96296,46.5555556 C2028.96296,46.3563786 2029.1223,46.1926109 2029.31981,46.1854307 L2029.33333,46.1851852 L2030.66667,46.1851852 L2028.05556,43.5740741 C2027.90741,43.4259259 2027.90741,43.2037037 2028.05556,43.0555556 Z" id="形状"></path>
        </g>
    </g>
</svg>