<svg width="20" height="20" xmlns="http://www.w3.org/2000/svg"><defs><linearGradient x1="50%" y1="0%" x2="50%" y2="100%" id="a"><stop stop-color="#89FF5D" stop-opacity=".9" offset="0%"/><stop stop-color="#3BB221" stop-opacity=".9" offset="100%"/></linearGradient></defs><path d="M81 110.506c0 5.5-4.5 10-10 10s-10-4.5-10-10 4.5-10 10-10 10 4.5 10 10zm-6.714 1.923c-.27-.275-.586-.495-.857-.77-.585-.494-1.126-.55-1.577.275-.225.44-.586.495-.946.275-.992-.55-1.758-1.374-2.209-2.638-.18-.55-.18-1.044.27-1.429.226-.22.496-.44.496-.88-.045-.604-1.171-2.527-1.622-2.692-.18-.11-.36-.055-.586 0-1.082.44-1.532 1.484-1.082 2.748 1.262 3.792 3.516 6.375 6.58 8.024.18.11.361.11.451.164.721 0 1.532-.824 1.758-1.593.18-.825-.316-1.1-.676-1.484z" transform="translate(-61 -100.506)" fill="url(#a)" fill-rule="evenodd"/></svg>