<svg width="14" height="14" xmlns="http://www.w3.org/2000/svg"><path d="M8.498 11a.499.499 0 01-.5-.5V5a.499.499 0 111 0v5.499a.501.501 0 01-.5.503zm-3 0A.499.499 0 015 10.5V5a.499.499 0 111 0v5.499a.501.501 0 01-.5.503zM13.5 2.5H11v-1C11 .672 10.335 0 9.513 0H4.499A1.5 1.5 0 003 1.5v1H.5a.499.499 0 100 1h13a.499.499 0 100-1zM4 1.5c0-.274.225-.5.5-.5h5.012a.49.49 0 01.489.5v1H3.999v-1zM10.5 14H3.503a1.5 1.5 0 01-1.5-1.5V4.994a.499.499 0 111 0V12.5a.5.5 0 00.5.5h7.001c.277 0 .5-.223.5-.5V5.012a.499.499 0 111 0V12.5a1.506 1.506 0 01-1.502 1.5z" fill="#5991C0"/></svg>