<svg width="24" height="22" xmlns="http://www.w3.org/2000/svg"><defs><filter x="-21.4%" y="-21.4%" width="142.9%" height="142.9%" filterUnits="objectBoundingBox" id="a"><feOffset dy="2" in="SourceAlpha" result="shadowOffsetOuter1"/><feGaussianBlur stdDeviation="2" in="shadowOffsetOuter1" result="shadowBlurOuter1"/><feColorMatrix values="0 0 0 0 0 0 0 0 0 0 0 0 0 0 0 0 0 0 0.5 0" in="shadowBlurOuter1" result="shadowMatrixOuter1"/><feMerge><feMergeNode in="shadowMatrixOuter1"/><feMergeNode in="SourceGraphic"/></feMerge></filter></defs><g filter="url(#a)" transform="translate(-16 -19)" fill="#31A5FF"><path d="M20.749 22.945h14.525a.724.724 0 00.726-.723.724.724 0 00-.726-.722H20.749a.724.724 0 00-.726.722c0 .4.325.723.726.723zm14.525 4.317h-8.931a.724.724 0 00-.726.722c0 .399.325.722.726.722h8.93a.724.724 0 00.727-.722.724.724 0 00-.726-.722zm0 5.793H20.749a.724.724 0 00-.726.723c0 .399.325.722.726.722h14.525a.724.724 0 00.726-.722.724.724 0 00-.726-.723zM20 24.382l3.63 3.612L20 31.606v-7.224z"/></g></svg>