<svg width="24" height="24" xmlns="http://www.w3.org/2000/svg"><defs><filter x="-3.1%" y="-1.7%" width="106.2%" height="103.4%" filterUnits="objectBoundingBox" id="a"><feOffset dy="2" in="SourceAlpha" result="shadowOffsetOuter1"/><feGaussianBlur stdDeviation="2" in="shadowOffsetOuter1" result="shadowBlurOuter1"/><feColorMatrix values="0 0 0 0 0 0 0 0 0 0 0 0 0 0 0 0 0 0 0.5 0" in="shadowBlurOuter1" result="shadowMatrixOuter1"/><feMerge><feMergeNode in="shadowMatrixOuter1"/><feMergeNode in="SourceGraphic"/></feMerge></filter></defs><g filter="url(#a)" transform="translate(-16 -117)" fill="#31A5FF"><path d="M28 119l.237.004.157.005.078.002.155.006.154.007c.103.005.204.01.305.017l.15.01c2.096.155 3.82.661 4.92 1.792 1.051 1.022 1.562 2.582 1.754 4.478l.014.146.012.148c.017.198.03.4.04.604l.007.154.003.077.005.156.003.078.003.157L36 127l-.003.159-.003.157-.003.078-.005.156-.003.077-.007.154c-.01.205-.023.406-.04.604l-.012.148-.014.146c-.192 1.896-.703 3.456-1.753 4.478-1.022 1.05-2.582 1.561-4.478 1.753l-.146.014-.148.012c-.198.017-.4.03-.604.04l-.154.007a21.11 21.11 0 01-.077.003l-.156.005-.078.003-.157.003L28 135l-.159-.003-.157-.003-.078-.003-.156-.005a21.11 21.11 0 01-.077-.003l-.154-.007c-.205-.01-.406-.023-.604-.04l-.148-.012-.146-.014c-1.896-.192-3.456-.703-4.478-1.753-1.13-1.1-1.637-2.825-1.791-4.921l-.01-.15a19.06 19.06 0 01-.018-.305l-.007-.154-.006-.155-.002-.078-.005-.157A23.745 23.745 0 0120 127l.004-.237.005-.157.002-.078.006-.155.007-.154c.005-.103.01-.204.017-.305l.01-.15c.155-2.096.661-3.82 1.792-4.92 1.1-1.132 2.825-1.638 4.921-1.792l.15-.01c.1-.007.202-.013.305-.018l.154-.007.155-.006.078-.002.157-.005L28 119zm-.652 10.532h-2.649a.608.608 0 00-.606.607c0 .326.262.594.585.606h2.67a.608.608 0 00.606-.606.608.608 0 00-.585-.606h-.021zm4.123-2.826h-6.772a.608.608 0 00-.606.606c0 .327.262.595.585.606h6.793a.608.608 0 00.606-.606.608.608 0 00-.585-.605h-.021zm0-2.826h-6.772a.608.608 0 00-.606.606c0 .327.262.595.585.606h6.793a.608.608 0 00.606-.606.608.608 0 00-.585-.605h-.021z"/></g></svg>