<svg width="22" height="23" xmlns="http://www.w3.org/2000/svg"><defs><filter x="-3.1%" y="-1.7%" width="106.2%" height="103.4%" filterUnits="objectBoundingBox" id="a"><feOffset dy="2" in="SourceAlpha" result="shadowOffsetOuter1"/><feGaussianBlur stdDeviation="2" in="shadowOffsetOuter1" result="shadowBlurOuter1"/><feColorMatrix values="0 0 0 0 0 0 0 0 0 0 0 0 0 0 0 0 0 0 0.5 0" in="shadowBlurOuter1" result="shadowMatrixOuter1"/><feMerge><feMergeNode in="shadowMatrixOuter1"/><feMergeNode in="SourceGraphic"/></feMerge></filter></defs><g filter="url(#a)" transform="translate(-44 -152)" fill="#AED7FF"><path d="M54.763 154c1.22 0 2.346.292 3.381.895 1.034.601 1.868 1.403 2.47 2.439a6.547 6.547 0 01.912 3.366c0 1.219-.309 2.332-.911 3.365a6.568 6.568 0 01-1.949 2.107l.046.014.09.029.088.03c.1.034.197.07.288.107l.077.032c.632.27 1.002.6 1.002.956 0 .917-2.46 1.66-5.494 1.66s-5.494-.743-5.494-1.66c0-.362.383-.697 1.033-.97l.078-.032.121-.046.084-.03.086-.03.088-.03.09-.028a6.567 6.567 0 01-1.938-2.109A6.547 6.547 0 0148 160.7c0-1.22.308-2.332.911-3.366a6.65 6.65 0 012.455-2.439c1.035-.603 2.177-.895 3.397-.895zm0 3.087c-.986 0-1.838.343-2.54 1.026l-.04.04c-.709.695-1.064 1.545-1.064 2.547 0 1.004.355 1.851 1.065 2.547a3.574 3.574 0 002.579 1.05c1.004 0 1.87-.354 2.579-1.05.71-.694 1.065-1.543 1.065-2.547 0-.986-.343-1.82-1.026-2.509l-.04-.039a3.526 3.526 0 00-2.578-1.065zm0 1.373h.047c.582.011 1.08.216 1.508.63l.036.035c.446.432.664.956.664 1.575 0 .618-.216 1.142-.664 1.575a2.2 2.2 0 01-1.541.647h-.1a2.196 2.196 0 01-1.541-.647 2.097 2.097 0 01-.664-1.575c0-.603.204-1.116.63-1.542l.034-.033a2.152 2.152 0 011.543-.664h.048z"/></g></svg>