<svg width="300" height="300" xmlns="http://www.w3.org/2000/svg"><defs><linearGradient x1="19.2%" y1="25.776%" x2="85.562%" y2="90.825%" id="a"><stop stop-color="#65C1FC" offset="0%"/><stop stop-color="#0078C4" offset="100%"/></linearGradient><linearGradient x1="50%" y1="0%" x2="50%" y2="100%" id="b"><stop stop-color="#329CDF" offset="0%"/><stop stop-color="#0279C5" offset="100%"/></linearGradient></defs><g fill="none" fill-rule="evenodd"><path d="M150.035 0c38.007 0 73.8 14.19 101.257 39.311l.83.765-3.759 4.045c-26.551-24.658-61.345-38.6-98.328-38.6C70.223 5.521 5.523 70.207 5.523 150s64.7 144.479 144.512 144.479c37.015 0 71.832-13.969 98.377-38.646l.802-.751 3.791 4.015C225.346 285.2 188.848 300 150.035 300 67.173 300 0 232.843 0 150S67.173 0 150.035 0z" fill="url(#a)" fill-rule="nonzero"/><path d="M253.778 250.58a2.762 2.762 0 113.973 3.838 2.762 2.762 0 01-3.973-3.838zm11.578-13.51a2.762 2.762 0 114.411 3.325 2.762 2.762 0 01-4.41-3.325zm9.83-14.83a2.762 2.762 0 114.783 2.762 2.762 2.762 0 01-4.783-2.763zm7.932-15.927a2.762 2.762 0 115.084 2.16 2.762 2.762 0 01-5.084-2.16zm5.914-16.78a2.761 2.761 0 115.309 1.523 2.761 2.761 0 01-5.309-1.523zm3.806-17.38a2.761 2.761 0 115.455.865 2.761 2.761 0 01-5.455-.865zm4.335-20.379l.162.001a2.761 2.761 0 11-.162 0zm-.733-18.11a2.761 2.761 0 11.481 5.502 2.761 2.761 0 01-.481-5.502zm-3.115-17.864a2.761 2.761 0 111.148 5.402 2.761 2.761 0 01-1.148-5.402zm-5.287-17.346a2.762 2.762 0 111.798 5.222 2.762 2.762 0 01-1.798-5.222zm-7.38-16.566a2.762 2.762 0 112.421 4.965 2.762 2.762 0 01-2.42-4.965zm-9.4-15.507a2.762 2.762 0 113.089 4.58 2.762 2.762 0 01-3.089-4.58zM260.064 52.12a2.762 2.762 0 113.623 4.17 2.762 2.762 0 01-3.623-4.17z" fill="url(#b)"/></g></svg>