<svg width="36" height="36" xmlns="http://www.w3.org/2000/svg" xmlns:xlink="http://www.w3.org/1999/xlink"><defs><linearGradient x1="50%" y1="16.912%" x2="50%" y2="75.029%" id="c"><stop stop-color="#FFF" offset="0%"/><stop stop-color="#C3E6FF" offset="100%"/></linearGradient><filter x="-41.7%" y="-33.3%" width="183.3%" height="183.3%" filterUnits="objectBoundingBox" id="a"><feOffset dy="2" in="SourceAlpha" result="shadowOffsetOuter1"/><feGaussianBlur stdDeviation="3" in="shadowOffsetOuter1" result="shadowBlurOuter1"/><feColorMatrix values="0 0 0 0 0 0 0 0 0 0.334741148 0 0 0 0 0.632288836 0 0 0 1 0" in="shadowBlurOuter1"/></filter><path d="M1815 838.429v17.142a3.428 3.428 0 003.429 3.429v-24a3.428 3.428 0 00-3.429 3.429zm20.571-3.429v6.833l-3.433-3.404-3.424 3.428V835h-8.571v24h15.428a3.428 3.428 0 003.429-3.429V838.43a3.428 3.428 0 00-3.429-3.429zm0 17.143h-12v-1.714h12v1.714zm0-5.143h-12v-1.714h12V847z" id="b"/></defs><g transform="translate(-1809 -831)" fill="none"><use fill="#000" filter="url(#a)" xlink:href="#b"/><use fill="#FFF" xlink:href="#b"/><use fill="url(#c)" xlink:href="#b"/></g></svg>