<svg width="40" height="34" xmlns="http://www.w3.org/2000/svg" xmlns:xlink="http://www.w3.org/1999/xlink"><defs><linearGradient x1="50%" y1="16.912%" x2="50%" y2="75.029%" id="c"><stop stop-color="#FFF" offset="0%"/><stop stop-color="#C3E6FF" offset="100%"/></linearGradient><filter x="-38.5%" y="-30.8%" width="176.9%" height="176.9%" filterUnits="objectBoundingBox" id="a"><feOffset dy="2" in="SourceAlpha" result="shadowOffsetOuter1"/><feGaussianBlur stdDeviation="3" in="shadowOffsetOuter1" result="shadowBlurOuter1"/><feColorMatrix values="0 0 0 0 0 0 0 0 0 0.334741148 0 0 0 0 0.632288836 0 0 0 1 0" in="shadowBlurOuter1"/></filter><path d="M1727.778 880.248c1.6 1.642 3.504 2.971 5.636 3.753l2.895-2.346c.152-.156.38-.156.609 0l5.332 3.52c.685.468.99 1.407.533 2.11a.603.603 0 01-.305.313l-2.513 2.502c-.762.704-1.752 1.017-2.742.86-4.875-1.016-9.445-3.518-13.025-7.037a25.88 25.88 0 01-7.16-13.058 3.468 3.468 0 01.838-2.815l2.59-2.58c.61-.626 1.523-.626 2.133 0 .152.077.228.234.304.312l3.504 5.395c.152.157.152.391 0 .626l-2.361 2.893c.838 2.111 2.132 3.988 3.732 5.552z" id="b"/></defs><g transform="rotate(-11 -3606.299 9326.015)" fill="none"><use fill="#000" filter="url(#a)" xlink:href="#b"/><use fill="#FFF" xlink:href="#b"/><use fill="url(#c)" xlink:href="#b"/></g></svg>