<svg width="278" height="277" xmlns="http://www.w3.org/2000/svg" xmlns:xlink="http://www.w3.org/1999/xlink"><defs><linearGradient x1="95.518%" y1="100%" x2="4.482%" y2="31.15%" id="a"><stop stop-color="#1D74B4" offset="0%"/><stop stop-color="#1D74B4" offset="0%"/><stop stop-color="#014297" offset="100%"/></linearGradient><linearGradient x1="4.896%" y1="90.655%" x2="95.104%" y2="30.849%" id="d"><stop stop-color="#1D74B4" offset="0%"/><stop stop-color="#014297" offset="100%"/></linearGradient><linearGradient x1="29.339%" y1="100%" x2="29.339%" y2="0%" id="g"><stop stop-color="#014297" offset="0%"/><stop stop-color="#1D74B4" offset="100%"/></linearGradient><linearGradient x1="29.339%" y1="100%" x2="29.339%" y2="0%" id="j"><stop stop-color="#014297" offset="0%"/><stop stop-color="#1D74B4" offset="100%"/></linearGradient><linearGradient x1="94.956%" y1="28.16%" x2="6.909%" y2="28.16%" id="m"><stop stop-color="#014297" offset="0%"/><stop stop-color="#1D74B4" offset="100%"/></linearGradient><linearGradient x1="50%" y1="0%" x2="50%" y2="100%" id="q"><stop stop-color="#8FD8FF" stop-opacity=".7" offset="0%"/><stop stop-color="#B1E5FF" stop-opacity=".3" offset="9.507%"/><stop stop-opacity="0" offset="52.745%"/><stop stop-color="#B1E5FF" stop-opacity=".3" offset="90.173%"/><stop stop-color="#8FD8FF" stop-opacity=".7" offset="100%"/></linearGradient><linearGradient x1="50%" y1="1.291%" x2="50%" y2="100%" id="v"><stop stop-color="#9AF1FF" stop-opacity=".5" offset="0%"/><stop stop-color="#82979A" stop-opacity=".119" offset="16.764%"/><stop stop-color="#7B7B7B" stop-opacity="0" offset="51.961%"/><stop stop-color="#89B3B9" stop-opacity=".237" offset="86.146%"/><stop stop-color="#9AF1FF" stop-opacity=".5" offset="100%"/></linearGradient><linearGradient x1="50%" y1="0%" x2="50%" y2="100%" id="x"><stop stop-color="#00FFEF" offset="0%"/><stop stop-color="#FFF" offset="49.464%"/><stop stop-color="#009EFF" offset="100%"/></linearGradient><linearGradient x1="0%" y1="46.783%" x2="100%" y2="50%" id="A"><stop stop-color="#196C93" stop-opacity="0" offset="0%"/><stop stop-color="#FFF" offset="52.708%"/><stop stop-color="#196C93" stop-opacity="0" offset="100%"/></linearGradient><filter x="-2.4%" y="-2.3%" width="104.7%" height="104.5%" filterUnits="objectBoundingBox" id="c"><feGaussianBlur stdDeviation="3" in="SourceAlpha" result="shadowBlurInner1"/><feOffset in="shadowBlurInner1" result="shadowOffsetInner1"/><feComposite in="shadowOffsetInner1" in2="SourceAlpha" operator="arithmetic" k2="-1" k3="1" result="shadowInnerInner1"/><feColorMatrix values="0 0 0 0 0.698870403 0 0 0 0 0.916106616 0 0 0 0 1 0 0 0 0.5 0" in="shadowInnerInner1"/></filter><filter x="-2.4%" y="-2.3%" width="104.8%" height="104.5%" filterUnits="objectBoundingBox" id="f"><feGaussianBlur stdDeviation="3" in="SourceAlpha" result="shadowBlurInner1"/><feOffset in="shadowBlurInner1" result="shadowOffsetInner1"/><feComposite in="shadowOffsetInner1" in2="SourceAlpha" operator="arithmetic" k2="-1" k3="1" result="shadowInnerInner1"/><feColorMatrix values="0 0 0 0 0.698870403 0 0 0 0 0.916106616 0 0 0 0 1 0 0 0 0.5 0" in="shadowInnerInner1"/></filter><filter x="-2.3%" y="-2%" width="104.6%" height="104%" filterUnits="objectBoundingBox" id="i"><feGaussianBlur stdDeviation="3" in="SourceAlpha" result="shadowBlurInner1"/><feOffset in="shadowBlurInner1" result="shadowOffsetInner1"/><feComposite in="shadowOffsetInner1" in2="SourceAlpha" operator="arithmetic" k2="-1" k3="1" result="shadowInnerInner1"/><feColorMatrix values="0 0 0 0 0.698870403 0 0 0 0 0.916106616 0 0 0 0 1 0 0 0 0.5 0" in="shadowInnerInner1"/></filter><filter x="-2.3%" y="-2%" width="104.5%" height="104.1%" filterUnits="objectBoundingBox" id="l"><feGaussianBlur stdDeviation="3" in="SourceAlpha" result="shadowBlurInner1"/><feOffset in="shadowBlurInner1" result="shadowOffsetInner1"/><feComposite in="shadowOffsetInner1" in2="SourceAlpha" operator="arithmetic" k2="-1" k3="1" result="shadowInnerInner1"/><feColorMatrix values="0 0 0 0 0.698870403 0 0 0 0 0.916106616 0 0 0 0 1 0 0 0 0.5 0" in="shadowInnerInner1"/></filter><filter x="-1.9%" y="-2.3%" width="103.8%" height="104.6%" filterUnits="objectBoundingBox" id="o"><feGaussianBlur stdDeviation="3" in="SourceAlpha" result="shadowBlurInner1"/><feOffset in="shadowBlurInner1" result="shadowOffsetInner1"/><feComposite in="shadowOffsetInner1" in2="SourceAlpha" operator="arithmetic" k2="-1" k3="1" result="shadowInnerInner1"/><feColorMatrix values="0 0 0 0 0.698870403 0 0 0 0 0.916106616 0 0 0 0 1 0 0 0 0.5 0" in="shadowInnerInner1"/></filter><filter x="-7.6%" y="-7.6%" width="115.2%" height="115.4%" filterUnits="objectBoundingBox" id="s"><feMorphology radius="3" operator="dilate" in="SourceAlpha" result="shadowSpreadOuter1"/><feOffset in="shadowSpreadOuter1" result="shadowOffsetOuter1"/><feMorphology radius="3" in="SourceAlpha" result="shadowInner"/><feOffset in="shadowInner" result="shadowInner"/><feComposite in="shadowOffsetOuter1" in2="shadowInner" operator="out" result="shadowOffsetOuter1"/><feGaussianBlur stdDeviation="2" in="shadowOffsetOuter1" result="shadowBlurOuter1"/><feColorMatrix values="0 0 0 0 0 0 0 0 0 0 0 0 0 0 0 0 0 0 0.5 0" in="shadowBlurOuter1"/></filter><filter x="-8.9%" y="-8.9%" width="117.7%" height="117.7%" filterUnits="objectBoundingBox" id="w"><feGaussianBlur stdDeviation="7.5" in="SourceAlpha" result="shadowBlurInner1"/><feOffset in="shadowBlurInner1" result="shadowOffsetInner1"/><feComposite in="shadowOffsetInner1" in2="SourceAlpha" operator="arithmetic" k2="-1" k3="1" result="shadowInnerInner1"/><feColorMatrix values="0 0 0 0 0.0274509804 0 0 0 0 0.701960784 0 0 0 0 1 0 0 0 1 0" in="shadowInnerInner1" result="shadowMatrixInner1"/><feGaussianBlur stdDeviation="2.5" in="SourceAlpha" result="shadowBlurInner2"/><feOffset in="shadowBlurInner2" result="shadowOffsetInner2"/><feComposite in="shadowOffsetInner2" in2="SourceAlpha" operator="arithmetic" k2="-1" k3="1" result="shadowInnerInner2"/><feColorMatrix values="0 0 0 0 0.0156862745 0 0 0 0 0.457925256 0 0 0 0 1 0 0 0 1 0" in="shadowInnerInner2" result="shadowMatrixInner2"/><feMerge><feMergeNode in="shadowMatrixInner1"/><feMergeNode in="shadowMatrixInner2"/></feMerge></filter><filter x="-60.4%" y="-60.4%" width="220.7%" height="220.7%" filterUnits="objectBoundingBox" id="z"><feGaussianBlur stdDeviation="10" in="SourceGraphic"/></filter><path d="M134.578 143.09v132.523h.087v.42C75.99 274.612 26.39 236.6 7.822 183.95l126.756-40.86z" id="b"/><path d="M142.029 276.018V143.102l126.241 40.98c-18.545 52.414-67.859 90.292-126.241 91.936z" id="e"/><path d="M221.63 28.141c33.126 25.215 54.508 65.059 54.508 109.896 0 13.559-1.956 26.661-5.6 39.04L144.397 136.13l76.122-106.381 1.11-1.608z" id="h"/><path d="M53.53 28.893l78.93 107.145-126.9 40.907C1.942 164.605 0 151.547 0 138.037 0 93.643 20.962 54.144 53.53 28.893z" id="k"/><path d="M138.069 0c28.763 0 55.471 8.793 77.583 23.837l-1.158 1.68L138.46 131.77 59.466 24.538C81.774 9.067 108.862 0 138.069 0z" id="n"/><path d="M134.578 143.09v132.523h.087v.42C75.99 274.612 26.39 236.6 7.822 183.95l126.756-40.86zm7.45.012l126.242 40.98c-18.545 52.414-67.859 90.292-126.241 91.936V143.102zm79.602-114.96c33.126 25.214 54.508 65.058 54.508 109.895 0 13.559-1.956 26.661-5.6 39.04L144.397 136.13l76.122-106.381 1.11-1.608zm-168.1.75l78.93 107.146-126.9 40.907C1.942 164.605 0 151.547 0 138.037 0 93.643 20.962 54.144 53.53 28.893zM138.069 0c28.763 0 55.471 8.793 77.583 23.837l-1.158 1.68L138.46 131.77 59.466 24.538C81.774 9.067 108.862 0 138.069 0z" id="p"/><path d="M131.626 196.933c-21.43-2.312-39.446-16.032-47.864-34.97m108.614 0c-8.27 18.785-25.91 32.45-46.943 34.97m33.136-103.068c11.877 10.785 19.33 26.317 19.33 43.58 0 4.309-.464 8.51-1.345 12.555m-116.13 0a59.831 59.831 0 01-1.264-12.27c0-17.404 7.46-33.051 19.33-43.865m10.124-7.816c8.668-4.98 18.728-7.828 29.458-7.828 10.767 0 20.86 2.869 29.548 7.88" id="t"/><radialGradient cx="50%" cy="50%" fx="50%" fy="50%" r="67.357%" gradientTransform="matrix(0 1 -.99977 0 1 0)" id="y"><stop stop-color="#FFF" offset="0%"/><stop stop-color="#FFF" stop-opacity="0" offset="100%"/></radialGradient><ellipse id="u" cx="138.069" cy="138.037" rx="42.341" ry="42.331"/></defs><g transform="translate(.966 .963)" fill="none" fill-rule="evenodd" opacity=".85"><g><use fill="url(#a)" xlink:href="#b"/><use fill="#000" filter="url(#c)" xlink:href="#b"/><use fill="url(#d)" xlink:href="#e"/><use fill="#000" filter="url(#f)" xlink:href="#e"/><use fill="url(#g)" xlink:href="#h"/><use fill="#000" filter="url(#i)" xlink:href="#h"/><g><use fill="url(#j)" xlink:href="#k"/><use fill="#000" filter="url(#l)" xlink:href="#k"/></g><g><use fill="url(#m)" xlink:href="#n"/><use fill="#000" filter="url(#o)" xlink:href="#n"/></g></g><g><mask id="r" fill="#fff"><use xlink:href="#p"/></mask><ellipse fill="url(#q)" mask="url(#r)" cx="138.069" cy="138.037" rx="138.069" ry="138.037"/></g><g stroke-linejoin="round"><use fill="#000" filter="url(#s)" xlink:href="#t"/><use stroke="#00BFFE" stroke-width="6" xlink:href="#t"/></g><ellipse fill="#08273B" cx="138.069" cy="138.037" rx="58.909" ry="58.896"/><use fill="#0D1A2E" xlink:href="#u"/><use fill="url(#v)" xlink:href="#u"/><use fill="#000" filter="url(#w)" xlink:href="#u"/><ellipse stroke="url(#x)" stroke-width="2" cx="138.069" cy="138.037" rx="50.546" ry="50.534"/><ellipse fill="url(#y)" opacity=".8" filter="url(#z)" cx="138.069" cy="138.037" rx="24.852" ry="24.847"/><path d="M138.069 193.252a1.84 1.84 0 110 3.68 1.84 1.84 0 010-3.68zm8.64-.68a1.84 1.84 0 11.576 3.636 1.84 1.84 0 01-.577-3.636zm-19.386 1.53a1.84 1.84 0 113.637.576 1.84 1.84 0 01-3.637-.576zm27.812-3.553a1.841 1.841 0 111.138 3.502 1.841 1.841 0 01-1.138-3.502zm-36.452 1.182a1.841 1.841 0 113.502 1.138 1.841 1.841 0 01-3.502-1.138zm44.459-4.498a1.841 1.841 0 111.671 3.282 1.841 1.841 0 01-1.671-3.282zm-52.622.805a1.841 1.841 0 113.28 1.672 1.841 1.841 0 01-3.28-1.672zm60.01-5.332a1.841 1.841 0 112.165 2.98 1.841 1.841 0 01-2.164-2.98zm-67.494.408a1.841 1.841 0 112.978 2.165 1.841 1.841 0 01-2.978-2.165zm74.085-6.034a1.841 1.841 0 112.603 2.604 1.841 1.841 0 01-2.603-2.604zm-80.707 0a1.841 1.841 0 112.603 2.604 1.841 1.841 0 01-2.603-2.604zm86.335-6.589a1.841 1.841 0 112.979 2.165 1.841 1.841 0 01-2.979-2.165zm-91.932-.407a1.841 1.841 0 112.165 2.98 1.841 1.841 0 01-2.165-2.98zm96.46-6.98a1.841 1.841 0 113.28 1.672 1.841 1.841 0 01-3.28-1.672zm-100.892-.805a1.841 1.841 0 111.671 3.281 1.841 1.841 0 01-1.671-3.28zm104.208-7.2a1.841 1.841 0 113.502 1.139 1.841 1.841 0 01-3.502-1.139zm-107.368-1.182a1.841 1.841 0 111.137 3.502 1.841 1.841 0 01-1.137-3.502zm109.392-7.243a1.84 1.84 0 113.636.577 1.84 1.84 0 01-3.636-.577zm-111.202-1.53a1.84 1.84 0 11.576 3.637 1.84 1.84 0 01-.576-3.637zm113.722-8.948a1.84 1.84 0 110 3.682 1.84 1.84 0 010-3.682zm-114.137 0a1.84 1.84 0 110 3.682 1.84 1.84 0 010-3.682zm113.147-8.902a1.84 1.84 0 11.576 3.636 1.84 1.84 0 01-.576-3.636zm-114.262 1.53a1.84 1.84 0 113.636.576 1.84 1.84 0 01-3.636-.577zm111.89-10.169a1.841 1.841 0 111.138 3.502 1.841 1.841 0 01-1.138-3.502zm-109.732 1.182a1.841 1.841 0 113.501 1.139 1.841 1.841 0 01-3.501-1.139zm106.039-9.343a1.841 1.841 0 111.671 3.281 1.841 1.841 0 01-1.671-3.28zM85.58 111.3a1.841 1.841 0 113.28 1.672 1.841 1.841 0 01-3.28-1.672zm97.576-8.287a1.841 1.841 0 112.164 2.979 1.841 1.841 0 01-2.164-2.98zm-92.746.407a1.841 1.841 0 112.979 2.165 1.841 1.841 0 01-2.979-2.165zm86.71-7.028a1.841 1.841 0 112.604 2.605 1.841 1.841 0 01-2.603-2.605zm-80.706 0a1.841 1.841 0 112.603 2.605 1.841 1.841 0 01-2.603-2.605zm73.71-5.595a1.841 1.841 0 112.978 2.165 1.841 1.841 0 01-2.978-2.165zm-66.681-.407a1.841 1.841 0 112.164 2.98 1.841 1.841 0 01-2.164-2.98zm58.894-4.024a1.841 1.841 0 113.28 1.672 1.841 1.841 0 01-3.28-1.672zm-51.012-.805a1.841 1.841 0 111.671 3.281 1.841 1.841 0 01-1.671-3.28zm42.628-2.355a1.841 1.841 0 113.502 1.139 1.841 1.841 0 01-3.502-1.139zm-34.088-1.181a1.841 1.841 0 111.138 3.501 1.841 1.841 0 01-1.138-3.501zm25.313-.628a1.84 1.84 0 113.636.577 1.84 1.84 0 01-3.636-.577zm-16.325-1.53a1.84 1.84 0 11.577 3.637 1.84 1.84 0 01-.577-3.637zm9.216-.725a1.84 1.84 0 110 3.682 1.84 1.84 0 010-3.682z" fill="url(#A)"/></g></svg>