<svg width="40" height="40" xmlns="http://www.w3.org/2000/svg" xmlns:xlink="http://www.w3.org/1999/xlink"><defs><linearGradient x1="50%" y1="16.912%" x2="50%" y2="75.029%" id="c"><stop stop-color="#FFF" offset="0%"/><stop stop-color="#C3E6FF" offset="100%"/></linearGradient><filter x="-54.2%" y="-45.8%" width="208.3%" height="208.3%" filterUnits="objectBoundingBox" id="a"><feOffset dy="2" in="SourceAlpha" result="shadowOffsetOuter1"/><feGaussianBlur stdDeviation="4" in="shadowOffsetOuter1" result="shadowBlurOuter1"/><feColorMatrix values="0 0 0 0 0 0 0 0 0 0.333333333 0 0 0 0 0.631372549 0 0 0 1 0" in="shadowBlurOuter1"/></filter><path d="M1629 835v24h-2.667a1.333 1.333 0 01-1.333-1.333v-21.334c0-.736.597-1.333 1.333-1.333H1629zm18.667 0c.736 0 1.333.597 1.333 1.333v21.334c0 .736-.597 1.333-1.333 1.333h-16v-24h16zm-7.334 12c-2.62 0-4.666 2.16-4.666 4 0 1.84 3.785 2 4.666 2 .881 0 4.667-.16 4.667-2s-2.047-4-4.667-4zm0-6.667a2.667 2.667 0 100 5.334 2.667 2.667 0 000-5.334z" id="b"/></defs><g transform="translate(-1617 -829)" fill="none"><use fill="#000" filter="url(#a)" xlink:href="#b"/><use fill="url(#c)" xlink:href="#b"/></g></svg>