<svg width="38" height="38" xmlns="http://www.w3.org/2000/svg" xmlns:xlink="http://www.w3.org/1999/xlink"><defs><linearGradient x1="50%" y1="16.912%" x2="50%" y2="75.029%" id="c"><stop stop-color="#FFF" offset="0%"/><stop stop-color="#C3E6FF" offset="100%"/></linearGradient><filter x="-38.5%" y="-30.8%" width="176.9%" height="176.9%" filterUnits="objectBoundingBox" id="a"><feOffset dy="2" in="SourceAlpha" result="shadowOffsetOuter1"/><feGaussianBlur stdDeviation="3" in="shadowOffsetOuter1" result="shadowBlurOuter1"/><feColorMatrix values="0 0 0 0 0 0 0 0 0 0.334741148 0 0 0 0 0.632288836 0 0 0 1 0" in="shadowBlurOuter1"/></filter><path d="M1787.469 952.969c0 .45-.364.812-.813.812h-7.312a.81.81 0 01-.574-.238.81.81 0 01-.239-.574c0-1.541.782-2.902 1.968-3.705a4.062 4.062 0 012.448-7.264 4.075 4.075 0 014.115 3.997 4.056 4.056 0 01-1.561 3.267 4.465 4.465 0 011.968 3.704zm8.53 14.219c0 .449-.362.812-.812.812h-7.312a.81.81 0 01-.574-.239.81.81 0 01-.239-.573c0-1.542.782-2.903 1.968-3.705a4.062 4.062 0 012.448-7.264 4.075 4.075 0 014.115 3.996 4.056 4.056 0 01-1.561 3.268 4.465 4.465 0 011.968 3.704zm-17.062 0c0 .449-.363.812-.812.812h-7.313a.81.81 0 01-.573-.239.81.81 0 01-.239-.573c0-1.542.782-2.903 1.968-3.705a4.062 4.062 0 012.448-7.264 4.075 4.075 0 014.115 3.996 4.056 4.056 0 01-1.561 3.268 4.465 4.465 0 011.968 3.704zm7.193-6.907a.81.81 0 01-1.11.297l-2.02-1.165-2.021 1.165a.813.813 0 01-.813-1.406l2.021-1.166v-2.193a.812.812 0 111.625 0v2.19l2.021 1.166c.389.226.52.724.297 1.112z" id="b"/></defs><g transform="translate(-1764 -938)" fill="none"><use fill="#000" filter="url(#a)" xlink:href="#b"/><use fill="#FFF" xlink:href="#b"/><use fill="url(#c)" xlink:href="#b"/></g></svg>