<svg width="36" height="32" xmlns="http://www.w3.org/2000/svg" xmlns:xlink="http://www.w3.org/1999/xlink"><defs><linearGradient x1="50%" y1="16.912%" x2="50%" y2="75.029%" id="c"><stop stop-color="#FFF" offset="0%"/><stop stop-color="#C3E6FF" offset="100%"/></linearGradient><filter x="-41.7%" y="-39.4%" width="183.3%" height="198.4%" filterUnits="objectBoundingBox" id="a"><feOffset dy="2" in="SourceAlpha" result="shadowOffsetOuter1"/><feGaussianBlur stdDeviation="3" in="shadowOffsetOuter1" result="shadowBlurOuter1"/><feColorMatrix values="0 0 0 0 0 0 0 0 0 0.334741148 0 0 0 0 0.632288836 0 0 0 1 0" in="shadowBlurOuter1"/></filter><path d="M1671.816 950.884a1.07 1.07 0 01.555-.605h.91l11.754 4.28h3.152v-4.28c0-1.182-.957-2.14-2.14-2.14h-9.622v-1.07c0-.589-.48-1.069-1.07-1.069h-6.42c-.589 0-1.069.48-1.069 1.07v7.486h2.611l1.339-3.672zm16.79 4.744h-21.174c-1.168 0-1.726 1.267-1.278 2.724l1.946 6.318c.29.937 1.203 1.654 2.059 1.654h15.483c.856 0 1.784-.717 2.094-1.654l2.087-6.318c.48-1.457-.049-2.724-1.217-2.724z" id="b"/></defs><g transform="translate(-1660 -942)" fill="none"><use fill="#000" filter="url(#a)" xlink:href="#b"/><use fill="#FFF" xlink:href="#b"/><use fill="url(#c)" xlink:href="#b"/></g></svg>