<svg width="34" height="36" xmlns="http://www.w3.org/2000/svg" xmlns:xlink="http://www.w3.org/1999/xlink"><defs><linearGradient x1="50%" y1="16.912%" x2="50%" y2="75.029%" id="c"><stop stop-color="#FFF" offset="0%"/><stop stop-color="#C3E6FF" offset="100%"/></linearGradient><filter x="-43.8%" y="-33.3%" width="187.5%" height="183.3%" filterUnits="objectBoundingBox" id="a"><feOffset dy="2" in="SourceAlpha" result="shadowOffsetOuter1"/><feGaussianBlur stdDeviation="3" in="shadowOffsetOuter1" result="shadowBlurOuter1"/><feColorMatrix values="0 0 0 0 0 0 0 0 0 0.334741148 0 0 0 0 0.632288836 0 0 0 1 0" in="shadowBlurOuter1"/></filter><path d="M1733.595 780.066a9.34 9.34 0 014.686 7.8l.005.304c0 .265-.011.53-.034.795l-.043.397a15.959 15.959 0 01-8.784 2.638l-.426-.006a15.83 15.83 0 01-8.984-2.506l-.346-.23a9.58 9.58 0 01-.06-.736l-.009-.37a9.322 9.322 0 014.414-7.931l.26-.155a7.358 7.358 0 009.099.175l.222-.175zm-2.907 1.826h-3.353l.73 1.655-.713 3.834 1.715 1.98 1.63-1.98-.618-3.842.61-1.647zm7.59-2.76l.253.15a8.301 8.301 0 013.914 7.027v.355c-.004.236-.019.473-.043.708l-.355.24a11.92 11.92 0 01-2.689 1.295v-.343a10.582 10.582 0 00-3.79-8.147l.328-.078a6.449 6.449 0 002.382-1.208zm-9.28-11.132a6.346 6.346 0 01-.034 12.692h-.034A6.346 6.346 0 011729 768zm5.129.352a5.643 5.643 0 010 11.285h-.352a7.238 7.238 0 00-.669-11.148l.338-.055a5.72 5.72 0 01.683-.048z" id="b"/></defs><g transform="translate(-1714 -764)" fill="none"><use fill="#000" filter="url(#a)" xlink:href="#b"/><use fill="#FFF" xlink:href="#b"/><use fill="url(#c)" xlink:href="#b"/></g></svg>