<svg width="16" height="16" xmlns="http://www.w3.org/2000/svg"><defs><linearGradient x1="50%" y1="0%" x2="50%" y2="100%" id="a"><stop stop-color="#FFE242" offset="0%"/><stop stop-color="#EF9500" offset="100%"/></linearGradient></defs><path d="M358 383a8 8 0 014.035 14.91h2.692a.545.545 0 110 1.09H358a8 8 0 010-16zm-1.462 4.727a.712.712 0 00-.712.592l-.008.102v5.157c0 .128.036.252.104.36.186.295.563.41.885.284l.104-.05 4.378-2.558a.699.699 0 00.24-.23.676.676 0 00-.14-.887l-.095-.067-4.378-2.6a.738.738 0 00-.378-.103z" transform="translate(-350 -383)" fill="url(#a)"/></svg>